<?xml version="1.0" encoding="UTF-8" standalone="no"?>
<!-- Created with Inkscape (http://www.inkscape.org/) -->

<svg
   xmlns:dc="http://purl.org/dc/elements/1.1/"
   xmlns:cc="http://creativecommons.org/ns#"
   xmlns:rdf="http://www.w3.org/1999/02/22-rdf-syntax-ns#"
   xmlns:svg="http://www.w3.org/2000/svg"
   xmlns="http://www.w3.org/2000/svg"
   xmlns:sodipodi="http://sodipodi.sourceforge.net/DTD/sodipodi-0.dtd"
   xmlns:inkscape="http://www.inkscape.org/namespaces/inkscape"
   width="210mm"
   height="297mm"
   viewBox="0 0 210 297"
   version="1.1"
   id="svg6771"
   inkscape:version="0.92.3 (2405546, 2018-03-11)"
   sodipodi:docname="0.svg">
  <defs
     id="defs6765" />
  <sodipodi:namedview
     id="base"
     pagecolor="#ffffff"
     bordercolor="#666666"
     borderopacity="1.0"
     inkscape:pageopacity="0.0"
     inkscape:pageshadow="2"
     inkscape:zoom="0.35"
     inkscape:cx="-77.142857"
     inkscape:cy="560"
     inkscape:document-units="mm"
     inkscape:current-layer="layer1"
     showgrid="false"
     inkscape:window-width="1920"
     inkscape:window-height="1001"
     inkscape:window-x="-9"
     inkscape:window-y="-9"
     inkscape:window-maximized="1" />
  <metadata
     id="metadata6768">
    <rdf:RDF>
      <cc:Work
         rdf:about="">
        <dc:format>image/svg+xml</dc:format>
        <dc:type
           rdf:resource="http://purl.org/dc/dcmitype/StillImage" />
        <dc:title></dc:title>
      </cc:Work>
    </rdf:RDF>
  </metadata>
  <g
     inkscape:label="Layer 1"
     inkscape:groupmode="layer"
     id="layer1">
    <g
       transform="translate(-60.199603,27.222628)"
       id="g6757">
      <g
         id="g6712">
        <path
           style="opacity:1;fill:#000000;fill-opacity:1;stroke:#000000;stroke-width:0.09500001;stroke-linecap:butt;stroke-linejoin:round;stroke-miterlimit:4;stroke-dasharray:none;stroke-dashoffset:0;stroke-opacity:1;paint-order:normal"
           d="m 159.39521,190.79655 -1.44103,-0.0287 V 162.085 c 0,-27.27218 0.008,-28.6805 0.16536,-28.63511 0.81386,0.23499 4.13105,0.59755 6.6686,0.72886 2.15758,0.11165 5.09668,0.0206 7.39596,-0.22919 l 1.048,-0.11383 0.0622,4.01819 c 0.0342,2.20999 0.0622,15.04209 0.0623,28.51577 l 1.1e-4,24.49758 -6.26023,-0.021 c -3.44313,-0.0115 -6.90869,-0.0339 -7.70126,-0.0497 z"
           id="path6446-0-9"
           inkscape:connector-curvature="0" />
        <path
           style="opacity:1;fill:#000000;fill-opacity:1;stroke:#000000;stroke-width:0.191929;stroke-linecap:butt;stroke-linejoin:round;stroke-miterlimit:4;stroke-dasharray:none;stroke-dashoffset:0;stroke-opacity:1;paint-order:normal"
           d="m 158.05961,133.84293 c -8.61886,-0.99642 -18.90017,-6.34847 -26.20542,-13.64149 -19.28439,-19.25215 -19.43248,-50.439932 -0.33097,-69.704138 6.84771,-6.906022 14.82553,-11.392588 24.53865,-13.800032 5.45391,-1.351782 17.24806,-1.19208 22.84476,0.309351 5.00036,1.341438 11.74568,4.455689 16.19467,7.47694 9.49624,6.448769 17.11291,17.614767 19.96734,29.271991 1.61872,6.610668 1.61872,16.243036 0,22.853677 -2.78376,11.368591 -9.99014,22.034471 -19.59129,28.996211 -4.0273,2.92018 -11.7874,6.44716 -16.86126,7.66345 -4.70403,1.12765 -13.61535,1.37649 -20.55648,0.57404 z m 13.0434,-28.05348 c 5.06624,-2.61985 9.89534,-13.123439 10.58013,-23.012479 0.40156,-5.798741 -0.47194,-9.776963 -2.63176,-11.986075 -3.61637,-3.698954 -6.41059,-3.984916 -9.80614,-1.003564 -1.70807,1.499684 -1.83118,1.532202 -1.83118,0.48334 0,-1.175808 -0.40095,-1.347284 -1.84994,-0.791262 -2.01724,0.774091 -6.00758,12.054125 -6.73997,19.052777 -1.17552,11.233124 2.00223,18.031773 8.42822,18.031773 1.2941,0 3.02689,-0.34853 3.85064,-0.77451 z"
           id="path6668"
           inkscape:connector-curvature="0" />
      </g>
      <path
         sodipodi:nodetypes="cssssscssssscc"
         inkscape:connector-curvature="0"
         id="path6670"
         d="m 166.07646,99.612567 c -1.68704,-3.262418 -1.88693,-12.823931 -0.41863,-20.025783 0.54619,-2.67902 3.22584,-4.520669 5.79601,-4.551896 0.073,-8.86e-4 0.50072,-7.226117 0.57347,-7.224104 0.18938,0.0053 0.60123,-0.100823 0.78781,-0.075 0.045,0.0062 -0.48843,7.360423 -0.44365,7.367866 0.6658,0.11075 1.30497,0.356949 1.87572,0.756723 4.03725,2.827787 4.19634,10.819737 0.367,18.435743 -2.04028,4.057815 -4.10998,6.430094 -5.81815,6.873374 -0.0759,0.0197 -0.30984,5.37264 -0.38431,5.38474 -0.2322,0.0376 -0.31512,-0.0122 -0.53172,-0.0498 -0.0398,-0.007 -0.0626,-5.30203 -0.10186,-5.31153 -0.65831,-0.15889 -1.2357,-0.67936 -1.70166,-1.580429 z"
         style="opacity:1;fill:#000000;fill-opacity:1;stroke:#000000;stroke-width:0.191929;stroke-linecap:butt;stroke-linejoin:round;stroke-miterlimit:4;stroke-dasharray:none;stroke-dashoffset:0;stroke-opacity:1;paint-order:normal" />
    </g>
  </g>
</svg>
