<?xml version="1.0" encoding="UTF-8" standalone="no"?>
<!-- Created with Inkscape (http://www.inkscape.org/) -->

<svg
   xmlns:dc="http://purl.org/dc/elements/1.1/"
   xmlns:cc="http://creativecommons.org/ns#"
   xmlns:rdf="http://www.w3.org/1999/02/22-rdf-syntax-ns#"
   xmlns:svg="http://www.w3.org/2000/svg"
   xmlns="http://www.w3.org/2000/svg"
   xmlns:sodipodi="http://sodipodi.sourceforge.net/DTD/sodipodi-0.dtd"
   xmlns:inkscape="http://www.inkscape.org/namespaces/inkscape"
   width="210mm"
   height="297mm"
   viewBox="0 0 210 297"
   version="1.1"
   id="svg6771"
   inkscape:version="0.92.3 (2405546, 2018-03-11)"
   sodipodi:docname="1.svg">
  <defs
     id="defs6765" />
  <sodipodi:namedview
     id="base"
     pagecolor="#ffffff"
     bordercolor="#666666"
     borderopacity="1.0"
     inkscape:pageopacity="0.0"
     inkscape:pageshadow="2"
     inkscape:zoom="0.35"
     inkscape:cx="-77.142857"
     inkscape:cy="560"
     inkscape:document-units="mm"
     inkscape:current-layer="layer1"
     showgrid="false"
     inkscape:window-width="1920"
     inkscape:window-height="1001"
     inkscape:window-x="-9"
     inkscape:window-y="-9"
     inkscape:window-maximized="1" />
  <metadata
     id="metadata6768">
    <rdf:RDF>
      <cc:Work
         rdf:about="">
        <dc:format>image/svg+xml</dc:format>
        <dc:type
           rdf:resource="http://purl.org/dc/dcmitype/StillImage" />
        <dc:title></dc:title>
      </cc:Work>
    </rdf:RDF>
  </metadata>
  <g
     inkscape:label="Layer 1"
     inkscape:groupmode="layer"
     id="layer1">
    <g
       transform="translate(53.592541,356.16407)"
       id="g6721">
      <path
         inkscape:connector-curvature="0"
         id="path6446"
         d="m 44.071054,-139.48255 -1.44103,-0.0287 v -28.68285 c 0,-27.27219 0.008,-28.6805 0.16536,-28.63511 0.81386,0.23499 4.13105,0.59755 6.6686,0.72886 2.15758,0.11165 5.09668,0.0206 7.39596,-0.22919 l 1.048,-0.11384 0.0622,4.01819 c 0.0342,2.21 0.0622,15.0421 0.0623,28.51577 l 1.2e-4,24.49758 -6.26023,-0.021 c -3.44313,-0.0115 -6.9087,-0.0339 -7.70127,-0.0497 z"
         style="opacity:1;fill:#000000;fill-opacity:1;stroke:#000000;stroke-width:0.095;stroke-linecap:butt;stroke-linejoin:round;stroke-miterlimit:4;stroke-dasharray:none;stroke-dashoffset:0;stroke-opacity:1;paint-order:normal" />
      <path
         inkscape:connector-curvature="0"
         id="path6474"
         d="m 44.846873,-195.99734 c -10.588215,-1.34959 -22.587429,-7.51574 -29.516064,-15.16769 -6.0460949,-6.67727 -9.9304479,-13.85602 -12.1128739,-22.38605 -1.311661,-5.12663 -1.656644,-14.51125 -0.729464,-19.84375 5.033378,-28.94854 33.3209499,-47.22362 61.6879259,-39.85326 18.566447,4.82397 32.943166,20.51418 36.247523,39.55918 0.78062,4.49916 0.77223,12.63727 -0.0176,17.11237 -3.685307,20.87961 -20.576496,37.2446 -41.763289,40.46228 -3.925189,0.59612 -9.65555,0.64469 -13.796131,0.11692 z m 4.806609,-30.2777 c 1.718434,-1.83241 2.824329,-4.04043 3.540124,-7.06821 0.272759,-1.15374 0.935485,-3.88364 1.472724,-6.06646 0.537239,-2.18281 1.034328,-4.90424 1.104644,-6.04762 0.07031,-1.14338 0.405103,-3.32313 0.743981,-4.8439 0.338879,-1.52077 0.616144,-3.43112 0.616144,-4.24522 0,-0.8141 0.204126,-2.67054 0.453612,-4.12544 0.668049,-3.89578 0.144941,-4.91124 -3.020113,-5.8626 -0.726535,-0.21839 -1.386663,0.24566 -4.108863,2.8884 -3.339901,3.24241 -7.40606,7.82139 -10.25788,11.55161 -1.316452,1.72194 -1.603681,2.37675 -1.511905,3.44675 0.06232,0.72653 0.296195,1.38089 0.519728,1.45415 0.223539,0.0733 2.306873,-1.64815 4.629632,-3.82536 4.321794,-4.05097 6.521733,-5.88779 7.051738,-5.88779 0.164553,0 0.177123,0.80792 0.02793,1.79539 -0.149182,0.98746 -0.40931,3.41123 -0.578061,5.38615 -0.404477,4.73375 -2.421832,16.17364 -3.42469,19.42051 -0.437441,1.41627 -0.703736,2.81376 -0.591772,3.10554 0.386024,1.00596 1.812464,0.54551 3.333017,-1.0759 z"
         style="opacity:1;fill:#000000;fill-opacity:1;stroke:#000000;stroke-width:0.13571428;stroke-linecap:butt;stroke-linejoin:round;stroke-miterlimit:4;stroke-dasharray:none;stroke-dashoffset:0;stroke-opacity:1;paint-order:normal" />
    </g>
  </g>
</svg>
