<?xml version="1.0" encoding="UTF-8" standalone="no"?>
<!-- Created with Inkscape (http://www.inkscape.org/) -->

<svg
   xmlns:dc="http://purl.org/dc/elements/1.1/"
   xmlns:cc="http://creativecommons.org/ns#"
   xmlns:rdf="http://www.w3.org/1999/02/22-rdf-syntax-ns#"
   xmlns:svg="http://www.w3.org/2000/svg"
   xmlns="http://www.w3.org/2000/svg"
   xmlns:sodipodi="http://sodipodi.sourceforge.net/DTD/sodipodi-0.dtd"
   xmlns:inkscape="http://www.inkscape.org/namespaces/inkscape"
   width="210mm"
   height="297mm"
   viewBox="0 0 210 297"
   version="1.1"
   id="svg6771"
   inkscape:version="0.92.3 (2405546, 2018-03-11)"
   sodipodi:docname="3.svg">
  <defs
     id="defs6765" />
  <sodipodi:namedview
     id="base"
     pagecolor="#ffffff"
     bordercolor="#666666"
     borderopacity="1.0"
     inkscape:pageopacity="0.0"
     inkscape:pageshadow="2"
     inkscape:zoom="0.35"
     inkscape:cx="-77.142857"
     inkscape:cy="560"
     inkscape:document-units="mm"
     inkscape:current-layer="layer1"
     showgrid="false"
     inkscape:window-width="1920"
     inkscape:window-height="1001"
     inkscape:window-x="-9"
     inkscape:window-y="-9"
     inkscape:window-maximized="1" />
  <metadata
     id="metadata6768">
    <rdf:RDF>
      <cc:Work
         rdf:about="">
        <dc:format>image/svg+xml</dc:format>
        <dc:type
           rdf:resource="http://purl.org/dc/dcmitype/StillImage" />
        <dc:title></dc:title>
      </cc:Work>
    </rdf:RDF>
  </metadata>
  <g
     inkscape:label="Layer 1"
     inkscape:groupmode="layer"
     id="layer1">
    <g
       transform="translate(-154.86074,353.26204)"
       id="g6729">
      <path
         inkscape:connector-curvature="0"
         id="path6446-0-3"
         d="m 246.42303,-136.61389 -1.44103,-0.0287 v -28.68285 c 0,-27.27218 0.008,-28.6805 0.16536,-28.63511 0.81386,0.23499 4.13105,0.59755 6.6686,0.72886 2.15758,0.11165 5.09668,0.0206 7.39596,-0.22919 l 1.048,-0.11383 0.0622,4.01819 c 0.0342,2.20999 0.0622,15.04209 0.0623,28.51577 l 1.1e-4,24.49758 -6.26023,-0.021 c -3.44313,-0.0115 -6.90869,-0.0339 -7.70126,-0.0497 z"
         style="opacity:1;fill:#000000;fill-opacity:1;stroke:#000000;stroke-width:0.09500001;stroke-linecap:butt;stroke-linejoin:round;stroke-miterlimit:4;stroke-dasharray:none;stroke-dashoffset:0;stroke-opacity:1;paint-order:normal" />
      <path
         inkscape:connector-curvature="0"
         id="path6656"
         d="m 247.85504,-193.18727 c -1.02899,-0.13315 -2.59252,-0.29407 -3.47451,-0.35761 -3.18489,-0.22946 -9.91106,-2.61351 -14.43255,-5.11553 -13.96568,-7.72807 -23.40248,-21.59129 -25.40684,-37.32416 -0.53227,-4.17804 -0.41386,-11.00638 0.25327,-14.60403 2.99563,-16.15479 12.84069,-29.25983 27.26639,-36.29509 16.89927,-8.24158 36.5453,-6.37008 51.6901,4.92405 13.764,10.26439 21.40445,27.81209 19.54776,44.895 -2.30841,21.23912 -17.82109,38.63585 -38.67771,43.37522 -1.86256,0.42323 -3.60067,0.5518 -8.6142,0.63722 -3.45446,0.0589 -7.12272,-0.002 -8.15171,-0.13507 z m 1.77623,-34.94583 c 2.48459,-0.75622 7.54547,-3.54863 10.11772,-5.58262 3.3655,-2.66122 4.80854,-5.0562 4.26429,-7.07739 -0.57798,-2.14643 -2.75307,-3.66805 -7.73925,-5.41408 -2.96238,-1.03736 -2.92926,-0.99994 -2.13815,-2.4155 0.36748,-0.65757 2.17157,-3.12987 4.00904,-5.49398 5.19833,-6.68821 5.61266,-7.32756 5.61266,-8.66081 0,-2.44233 -2.23231,-4.15441 -5.68846,-4.36278 -2.94267,-0.17741 -9.65308,0.85552 -11.38994,1.75325 -1.1656,0.60247 -2.28526,2.33563 -2.78601,4.31248 -0.68699,2.71221 -0.17344,2.99119 3.45199,1.87522 4.65535,-1.43302 8.60359,-1.95461 9.55109,-1.26178 0.4204,0.30739 0.3778,0.46307 -0.53012,1.9377 -1.14422,1.85849 -4.67434,6.56106 -7.17791,9.56191 -1.82763,2.19065 -2.01792,2.77378 -1.44322,4.42243 0.27411,0.78624 0.494,0.89782 3.8086,1.9326 4.18116,1.3053 6.27454,2.09452 6.49293,2.44787 0.49323,0.79809 -4.73517,4.4076 -12.76184,8.81033 -2.98141,1.63534 -3.97776,2.38415 -3.97776,2.98949 0,0.0727 0.18403,0.31614 0.40895,0.54106 0.60169,0.60169 5.55009,0.40451 7.91539,-0.3154 z"
         style="opacity:1;fill:#000000;fill-opacity:1;stroke:#000000;stroke-width:0.0959645;stroke-linecap:butt;stroke-linejoin:round;stroke-miterlimit:4;stroke-dasharray:none;stroke-dashoffset:0;stroke-opacity:1;paint-order:normal" />
    </g>
  </g>
</svg>
