<?xml version="1.0" encoding="UTF-8" standalone="no"?>
<!-- Created with Inkscape (http://www.inkscape.org/) -->

<svg
   xmlns:dc="http://purl.org/dc/elements/1.1/"
   xmlns:cc="http://creativecommons.org/ns#"
   xmlns:rdf="http://www.w3.org/1999/02/22-rdf-syntax-ns#"
   xmlns:svg="http://www.w3.org/2000/svg"
   xmlns="http://www.w3.org/2000/svg"
   xmlns:sodipodi="http://sodipodi.sourceforge.net/DTD/sodipodi-0.dtd"
   xmlns:inkscape="http://www.inkscape.org/namespaces/inkscape"
   width="210mm"
   height="297mm"
   viewBox="0 0 210 297"
   version="1.1"
   id="svg6771"
   inkscape:version="0.92.3 (2405546, 2018-03-11)"
   sodipodi:docname="4.svg">
  <defs
     id="defs6765" />
  <sodipodi:namedview
     id="base"
     pagecolor="#ffffff"
     bordercolor="#666666"
     borderopacity="1.0"
     inkscape:pageopacity="0.0"
     inkscape:pageshadow="2"
     inkscape:zoom="0.35"
     inkscape:cx="-77.142857"
     inkscape:cy="560"
     inkscape:document-units="mm"
     inkscape:current-layer="layer1"
     showgrid="false"
     inkscape:window-width="1920"
     inkscape:window-height="1001"
     inkscape:window-x="-9"
     inkscape:window-y="-9"
     inkscape:window-maximized="1" />
  <metadata
     id="metadata6768">
    <rdf:RDF>
      <cc:Work
         rdf:about="">
        <dc:format>image/svg+xml</dc:format>
        <dc:type
           rdf:resource="http://purl.org/dc/dcmitype/StillImage" />
        <dc:title></dc:title>
      </cc:Work>
    </rdf:RDF>
  </metadata>
  <g
     inkscape:label="Layer 1"
     inkscape:groupmode="layer"
     id="layer1">
    <g
       transform="translate(-257.96161,360.62216)"
       id="g6733">
      <path
         inkscape:connector-curvature="0"
         id="path6446-0-5"
         d="m 351.00712,-137.21328 -1.44103,-0.0287 v -28.68285 c 0,-27.27218 0.008,-28.6805 0.16536,-28.63511 0.81386,0.23499 4.13105,0.59755 6.6686,0.72886 2.15758,0.11165 5.09668,0.0206 7.39596,-0.22919 l 1.048,-0.11383 0.0622,4.01819 c 0.0342,2.20999 0.0622,15.04209 0.0623,28.51577 l 1.1e-4,24.49758 -6.26023,-0.021 c -3.44313,-0.0115 -6.90869,-0.0339 -7.70126,-0.0497 z"
         style="opacity:1;fill:#000000;fill-opacity:1;stroke:#000000;stroke-width:0.09500001;stroke-linecap:butt;stroke-linejoin:round;stroke-miterlimit:4;stroke-dasharray:none;stroke-dashoffset:0;stroke-opacity:1;paint-order:normal" />
      <path
         inkscape:connector-curvature="0"
         id="path6688"
         d="m 349.52375,-194.18275 c -14.57899,-1.95011 -29.20066,-13.273 -36.07038,-27.93257 -3.18556,-6.79782 -4.44461,-12.66096 -4.44461,-20.69762 0,-10.55411 2.78196,-19.57749 8.74154,-28.35337 9.94696,-14.64753 28.7631,-23.13802 46.35545,-20.91719 11.14021,1.40632 21.01932,6.17465 28.9868,13.99098 18.32631,17.97864 19.94096,46.13749 3.8096,66.4371 -6.12153,7.70329 -16.25607,14.23265 -25.86844,16.66616 -5.27801,1.33621 -14.8631,1.6956 -21.50996,0.80651 z m 10.60579,-34.96549 c 0.53234,-0.40362 1.06027,-1.41827 1.17317,-2.25479 0.82182,-6.09036 1.30624,-8.7836 1.70939,-9.50398 0.25625,-0.4579 1.77988,-1.61773 3.38585,-2.57739 1.97397,-1.1796 2.91991,-2.08942 2.91991,-2.80849 0,-1.12224 -1.12498,-1.26496 -4.07882,-0.51745 l -1.40612,0.35583 0.47487,-2.58916 c 0.2612,-1.42404 0.93951,-4.51351 1.50736,-6.86548 0.96885,-4.01274 0.97681,-4.32997 0.12943,-5.14687 -0.49667,-0.4788 -1.54694,-1.02019 -2.33394,-1.20308 -2.36257,-0.54905 -3.36481,1.34449 -4.11835,7.78084 -0.35533,3.03496 -0.7879,6.32988 -0.96125,7.32204 l -0.31523,1.80393 -3.66196,-0.26201 c -4.54015,-0.32485 -5.48508,-0.99878 -5.01801,-3.57883 0.54102,-2.98837 2.85853,-10.45389 5.19641,-16.73949 2.82401,-7.59251 2.27685,-8.85189 -2.60334,-5.99191 -2.66411,1.56127 -3.92356,3.63988 -4.13694,6.82773 -0.0824,1.23125 -0.56177,3.42539 -1.06519,4.87585 -0.99369,2.86299 -1.88944,8.76772 -1.91098,12.59715 -0.037,6.58189 2.04838,8.40155 8.9625,7.82047 l 3.90385,-0.32809 -0.3718,5.87552 c -0.3507,5.54224 -0.3144,5.87455 0.63974,5.85851 0.55634,-0.009 1.44708,-0.34724 1.97945,-0.75085 z"
         style="opacity:1;fill:#000000;fill-opacity:1;stroke:#000000;stroke-width:0.191929;stroke-linecap:butt;stroke-linejoin:round;stroke-miterlimit:4;stroke-dasharray:none;stroke-dashoffset:0;stroke-opacity:1;paint-order:normal" />
    </g>
  </g>
</svg>
