<?xml version="1.0" encoding="UTF-8" standalone="no"?>
<!-- Created with Inkscape (http://www.inkscape.org/) -->

<svg
   xmlns:dc="http://purl.org/dc/elements/1.1/"
   xmlns:cc="http://creativecommons.org/ns#"
   xmlns:rdf="http://www.w3.org/1999/02/22-rdf-syntax-ns#"
   xmlns:svg="http://www.w3.org/2000/svg"
   xmlns="http://www.w3.org/2000/svg"
   xmlns:sodipodi="http://sodipodi.sourceforge.net/DTD/sodipodi-0.dtd"
   xmlns:inkscape="http://www.inkscape.org/namespaces/inkscape"
   width="210mm"
   height="297mm"
   viewBox="0 0 210 297"
   version="1.1"
   id="svg6771"
   inkscape:version="0.92.3 (2405546, 2018-03-11)"
   sodipodi:docname="5.svg">
  <defs
     id="defs6765" />
  <sodipodi:namedview
     id="base"
     pagecolor="#ffffff"
     bordercolor="#666666"
     borderopacity="1.0"
     inkscape:pageopacity="0.0"
     inkscape:pageshadow="2"
     inkscape:zoom="0.35"
     inkscape:cx="-77.142857"
     inkscape:cy="560"
     inkscape:document-units="mm"
     inkscape:current-layer="layer1"
     showgrid="false"
     inkscape:window-width="1920"
     inkscape:window-height="1001"
     inkscape:window-x="-9"
     inkscape:window-y="-9"
     inkscape:window-maximized="1" />
  <metadata
     id="metadata6768">
    <rdf:RDF>
      <cc:Work
         rdf:about="">
        <dc:format>image/svg+xml</dc:format>
        <dc:type
           rdf:resource="http://purl.org/dc/dcmitype/StillImage" />
        <dc:title></dc:title>
      </cc:Work>
    </rdf:RDF>
  </metadata>
  <g
     inkscape:label="Layer 1"
     inkscape:groupmode="layer"
     id="layer1">
    <g
       transform="translate(40.495035,200.28295)"
       id="g6742">
      <path
         inkscape:connector-curvature="0"
         id="path6446-0-7"
         d="m 45.118282,27.576477 -1.441029,-0.0287 V -1.1350732 c 0,-27.2721798 0.008,-28.6804998 0.165359,-28.6351098 0.813861,0.23499 4.131051,0.59755 6.668601,0.72886 2.157581,0.11165 5.096682,0.0206 7.395961,-0.22919 l 1.047999,-0.11383 0.0622,4.01819 c 0.0342,2.20999 0.0622,15.04209 0.0623,28.5157698 l 1.12e-4,24.4975802 -6.26023,-0.021 c -3.443131,-0.0115 -6.908692,-0.0339 -7.701261,-0.0497 z"
         style="opacity:1;fill:#000000;fill-opacity:1;stroke:#000000;stroke-width:0.09500001;stroke-linecap:butt;stroke-linejoin:round;stroke-miterlimit:4;stroke-dasharray:none;stroke-dashoffset:0;stroke-opacity:1;paint-order:normal" />
      <path
         inkscape:connector-curvature="0"
         id="path6658"
         d="m 43.245775,-29.469035 c -1.76398,-0.233547 -5.011304,-1.068599 -7.216278,-1.855681 -16.980974,-6.061499 -29.2161164,-20.65065 -32.339512,-38.561539 -4.49113879,-25.754086 12.456469,-50.821535 38.302271,-56.653425 5.932469,-1.33862 16.054638,-1.22166 22.034788,0.2546 11.398948,2.81395 22.039685,10.00684 28.996219,19.60078 2.948273,4.06604 6.453806,11.809626 7.758097,17.13735 1.62703,6.646013 1.63039,16.261646 0.008,22.887315 -4.370154,17.847257 -18.50383,32.201035 -36.113883,36.67625 -4.510008,1.146122 -14.793219,1.392952 -21.429691,0.51435 z m 13.919343,-33.410868 c 4.114112,-1.071298 7.513465,-3.082052 8.528319,-5.044572 1.985796,-3.840083 0.622242,-5.841656 -7.803115,-11.454191 -3.896487,-2.595639 -7.13006,-5.133456 -7.37112,-5.785104 -0.938919,-2.538135 1.574909,-7.345566 3.848066,-7.359028 0.351102,-0.0021 2.923519,-0.345797 5.716487,-0.763821 4.679738,-0.700415 5.194548,-0.899051 6.562198,-2.531972 2.613538,-3.120467 2.156733,-3.363616 -6.631233,-3.529679 -4.293537,-0.08114 -8.398949,0.07776 -9.123132,0.353092 -0.768255,0.292089 -2.1652,1.912104 -3.35375,3.88929 -1.707806,2.840979 -2.077241,3.993449 -2.285738,7.130452 -0.314929,4.738409 0.07368,5.266544 8.382394,11.391915 3.400094,2.50661 6.353701,4.81756 6.563566,5.135404 0.209865,0.317871 0.08959,0.860505 -0.267269,1.205892 -0.863608,0.835818 -9.548013,3.313509 -13.076877,3.730889 -2.484464,0.293846 -2.80633,0.474292 -2.80633,1.573213 0,0.980387 0.421333,1.35673 2.00452,1.790541 4.538057,1.243383 7.126592,1.305745 11.113014,0.267679 z"
         style="opacity:1;fill:#000000;fill-opacity:1;stroke:#000000;stroke-width:0.191929;stroke-linecap:butt;stroke-linejoin:round;stroke-miterlimit:4;stroke-dasharray:none;stroke-dashoffset:0;stroke-opacity:1;paint-order:normal" />
    </g>
  </g>
</svg>
