<?xml version="1.0" encoding="UTF-8" standalone="no"?>
<!-- Created with Inkscape (http://www.inkscape.org/) -->

<svg
   xmlns:dc="http://purl.org/dc/elements/1.1/"
   xmlns:cc="http://creativecommons.org/ns#"
   xmlns:rdf="http://www.w3.org/1999/02/22-rdf-syntax-ns#"
   xmlns:svg="http://www.w3.org/2000/svg"
   xmlns="http://www.w3.org/2000/svg"
   xmlns:sodipodi="http://sodipodi.sourceforge.net/DTD/sodipodi-0.dtd"
   xmlns:inkscape="http://www.inkscape.org/namespaces/inkscape"
   width="210mm"
   height="297mm"
   viewBox="0 0 210 297"
   version="1.1"
   id="svg6771"
   inkscape:version="0.92.3 (2405546, 2018-03-11)"
   sodipodi:docname="8.svg">
  <defs
     id="defs6765" />
  <sodipodi:namedview
     id="base"
     pagecolor="#ffffff"
     bordercolor="#666666"
     borderopacity="1.0"
     inkscape:pageopacity="0.0"
     inkscape:pageshadow="2"
     inkscape:zoom="0.35"
     inkscape:cx="-77.142857"
     inkscape:cy="560"
     inkscape:document-units="mm"
     inkscape:current-layer="layer1"
     showgrid="false"
     inkscape:window-width="1920"
     inkscape:window-height="1001"
     inkscape:window-x="-9"
     inkscape:window-y="-9"
     inkscape:window-maximized="1" />
  <metadata
     id="metadata6768">
    <rdf:RDF>
      <cc:Work
         rdf:about="">
        <dc:format>image/svg+xml</dc:format>
        <dc:type
           rdf:resource="http://purl.org/dc/dcmitype/StillImage" />
        <dc:title></dc:title>
      </cc:Work>
    </rdf:RDF>
  </metadata>
  <g
     inkscape:label="Layer 1"
     inkscape:groupmode="layer"
     id="layer1">
    <g
       transform="translate(-271.91035,203.45277)"
       id="g6738">
      <path
         inkscape:connector-curvature="0"
         id="path6446-0-8"
         d="m 358.91687,22.942073 -1.44103,-0.0287 v -28.68285 c 0,-27.27218 0.008,-28.6805 0.16536,-28.63511 0.81386,0.23499 4.13105,0.59755 6.6686,0.72886 2.15758,0.11165 5.09668,0.0206 7.39596,-0.22919 l 1.048,-0.11383 0.0622,4.01819 c 0.0342,2.20999 0.0622,15.04209 0.0623,28.5157701 l 1.1e-4,24.4975799 -6.26023,-0.021 c -3.44313,-0.0115 -6.90869,-0.0339 -7.70126,-0.0497 z"
         style="opacity:1;fill:#000000;fill-opacity:1;stroke:#000000;stroke-width:0.09500001;stroke-linecap:butt;stroke-linejoin:round;stroke-miterlimit:4;stroke-dasharray:none;stroke-dashoffset:0;stroke-opacity:1;paint-order:normal" />
      <path
         sodipodi:nodetypes="cscccssccccsccscccscsssssccccssccccscc"
         inkscape:connector-curvature="0"
         id="path6666"
         d="m 357.42653,-34.042338 c -13.61272,-1.780037 -28.3459,-12.611814 -35.04848,-25.767506 -3.97338,-7.798858 -5.45611,-14.00257 -5.46205,-22.853014 -0.005,-8.035978 1.25084,-13.891842 4.44015,-20.697642 10.93411,-23.33281 36.77821,-34.38289 61.0829,-26.11707 7.13171,2.42546 12.96967,6.05448 18.55628,11.53512 7.59111,7.44712 12.3349,16.51328 14.18169,27.10357 4.37127,25.066704 -11.70981,49.779448 -36.48149,56.063302 -4.11916,1.044919 -6.31875,1.277409 -11.56605,1.222534 -3.56376,-0.03728 -7.93009,-0.257466 -9.70295,-0.489294 z m 8.07176,-35.417416 c 5.17366,-3.565339 6.08169,-6.983412 3.0121,-11.338268 l -1.69517,-2.326861 3.6819,-4.488991 c 3.86122,-4.812506 4.85262,-7.274375 4.85262,-12.050183 0,-2.123493 -0.31209,-3.022473 -1.62119,-4.669763 -1.87884,-2.36421 -2.81711,-3.06795 -5.14358,-3.85786 -1.58169,-0.53708 -2.55117,-0.44768 -7.58033,0.69884 -1.93639,0.44146 -6.50193,4.97861 -6.50193,6.46152 0,1.64788 1.03384,1.630947 5.61096,-0.0919 4.18978,-1.57702 8.98838,-1.91447 10.18652,-0.71633 0.94343,0.94343 0.36778,3.09278 -1.76743,6.534882 -0.0354,0.05712 5.12292,3.455596 5.05683,3.55599 -0.0861,0.130855 -0.33567,0.433157 -0.42341,0.56543 -0.0678,0.102156 -5.19473,-3.268277 -5.23326,-3.208401 -0.90153,1.40091 -1.80776,2.665933 -3.18884,4.468428 l -2.42366,3.1632 -2.03496,-2.293117 c -2.27251,-2.560797 -3.2804,-5.453327 -2.77708,-7.969938 0.28875,-1.443726 0.18284,-1.676003 -0.76429,-1.676003 -1.27055,0 -2.88352,2.080895 -3.79712,4.898654 -0.87101,2.686394 0.14256,4.957419 3.49081,7.821586 1.96785,1.683332 2.47723,2.410963 2.07398,2.962619 -0.294,0.402167 -1.43049,1.909048 -2.52555,3.348593 -2.90689,3.821404 -3.77985,5.882825 -3.38424,7.991581 0.53372,2.845011 2.45189,3.980232 6.72532,3.980232 3.21205,0 3.89431,-0.195024 6.171,-1.763977 z"
         style="opacity:1;fill:#000000;fill-opacity:1;stroke:#000000;stroke-width:0.191929;stroke-linecap:butt;stroke-linejoin:round;stroke-miterlimit:4;stroke-dasharray:none;stroke-dashoffset:0;stroke-opacity:1;paint-order:normal" />
      <path
         sodipodi:nodetypes="cssssssscsc"
         inkscape:connector-curvature="0"
         id="path6674"
         d="m 357.91038,-72.220786 c -0.29505,-0.768879 4.6062,-6.533263 5.18502,-7.234846 0.0747,-0.09049 3.57602,-3.786543 3.74993,-3.669987 0.0427,0.02862 0.80287,0.422064 0.52962,0.762144 -0.63093,0.785266 -2.31063,2.465666 -3.04351,3.145307 -0.21414,0.198585 -0.24349,0.40967 -0.2513,0.453084 -0.022,0.122399 0.14116,0.291507 0.21215,0.407283 1.69652,2.766767 1.43575,2.04659 1.43575,2.757148 0,0.570971 -0.70313,1.741223 -1.5625,2.600616 -1.21987,1.219861 -2.04406,1.562497 -3.75855,1.562497 -1.43579,0 -2.3001,-0.271172 -2.49661,-0.783246 z"
         style="opacity:1;fill:#000000;fill-opacity:1;stroke:#000000;stroke-width:0.191929;stroke-linecap:butt;stroke-linejoin:round;stroke-miterlimit:4;stroke-dasharray:none;stroke-dashoffset:0;stroke-opacity:1;paint-order:normal" />
    </g>
  </g>
</svg>
