<?xml version="1.0" encoding="UTF-8" standalone="no"?>
<!-- Created with Inkscape (http://www.inkscape.org/) -->

<svg
   xmlns:dc="http://purl.org/dc/elements/1.1/"
   xmlns:cc="http://creativecommons.org/ns#"
   xmlns:rdf="http://www.w3.org/1999/02/22-rdf-syntax-ns#"
   xmlns:svg="http://www.w3.org/2000/svg"
   xmlns="http://www.w3.org/2000/svg"
   xmlns:sodipodi="http://sodipodi.sourceforge.net/DTD/sodipodi-0.dtd"
   xmlns:inkscape="http://www.inkscape.org/namespaces/inkscape"
   width="210mm"
   height="297mm"
   viewBox="0 0 210 297"
   version="1.1"
   id="svg6771"
   inkscape:version="0.92.3 (2405546, 2018-03-11)"
   sodipodi:docname="9.svg">
  <defs
     id="defs6765" />
  <sodipodi:namedview
     id="base"
     pagecolor="#ffffff"
     bordercolor="#666666"
     borderopacity="1.0"
     inkscape:pageopacity="0.0"
     inkscape:pageshadow="2"
     inkscape:zoom="0.35"
     inkscape:cx="-77.142857"
     inkscape:cy="560"
     inkscape:document-units="mm"
     inkscape:current-layer="layer1"
     showgrid="false"
     inkscape:window-width="1920"
     inkscape:window-height="1001"
     inkscape:window-x="-9"
     inkscape:window-y="-9"
     inkscape:window-maximized="1" />
  <metadata
     id="metadata6768">
    <rdf:RDF>
      <cc:Work
         rdf:about="">
        <dc:format>image/svg+xml</dc:format>
        <dc:type
           rdf:resource="http://purl.org/dc/dcmitype/StillImage" />
        <dc:title></dc:title>
      </cc:Work>
    </rdf:RDF>
  </metadata>
  <g
     inkscape:label="Layer 1"
     inkscape:groupmode="layer"
     id="layer1">
    <g
       transform="translate(39.244367,17.89888)"
       id="g6708">
      <path
         inkscape:connector-curvature="0"
         id="path6446-0-6"
         d="m 53.226503,195.51108 -1.44103,-0.0287 v -28.68285 c 0,-27.27218 0.008,-28.6805 0.16536,-28.63511 0.81386,0.23499 4.13105,0.59755 6.6686,0.72886 2.15758,0.11165 5.09668,0.0206 7.39596,-0.22919 l 1.048,-0.11383 0.0622,4.01819 c 0.0342,2.20999 0.0622,15.04209 0.0623,28.51577 l 1.1e-4,24.49758 -6.26023,-0.021 c -3.44313,-0.0115 -6.90869,-0.0339 -7.70126,-0.0497 z"
         style="opacity:1;fill:#000000;fill-opacity:1;stroke:#000000;stroke-width:0.09500001;stroke-linecap:butt;stroke-linejoin:round;stroke-miterlimit:4;stroke-dasharray:none;stroke-dashoffset:0;stroke-opacity:1;paint-order:normal" />
      <path
         inkscape:connector-curvature="0"
         id="path6664"
         d="M 52.180104,138.60984 C 34.797323,136.49085 17.974319,121.31684 12.915147,103.19362 8.7387782,88.232833 11.83348,72.418688 21.429724,59.683525 27.855749,51.155528 36.223147,45.514664 47.603228,42.038727 c 4.146005,-1.266375 5.463921,-1.409912 12.903006,-1.40544 6.790984,0.004 9.035802,0.210714 12.44609,1.145513 17.489654,4.794118 30.996236,18.266198 35.744106,35.652789 1.61007,5.896028 1.72953,17.908138 0.23654,23.786971 -3.8921,15.32562 -13.561855,27.04211 -27.84039,33.73326 -2.418218,1.13321 -6.295486,2.50309 -8.616143,3.04416 -4.679784,1.09109 -14.055251,1.37465 -20.296333,0.61386 z m 7.027537,-29.37319 c 1.089276,0 4.869053,-7.84082 7.215087,-14.967083 2.769536,-8.412692 4.883613,-16.987785 4.492175,-18.221114 -0.649563,-2.046578 -2.75617,-1.201816 -7.114741,2.853108 -4.237866,3.942609 -10.898717,8.322522 -11.214761,7.374388 -0.299876,-0.89961 2.895166,-5.055818 6.334331,-8.239893 3.507692,-3.247495 8.385519,-6.751664 9.39837,-6.751664 0.335418,0 0.873004,-0.317076 1.194626,-0.704611 0.881314,-1.061932 -0.646634,-2.892558 -2.94367,-3.52679 -2.449002,-0.676196 -4.527854,0.321336 -9.480542,4.549272 -4.075662,3.479244 -9.268184,10.834132 -10.02412,14.198573 -0.608447,2.707984 0.354814,4.467913 2.731095,4.98983 2.329101,0.511572 4.818497,-0.485669 9.377365,-3.756528 2.203342,-1.580806 4.006075,-2.626783 4.006075,-2.324364 0,2.574925 -4.786487,19.969456 -6.197825,22.523446 -0.895136,1.61986 -0.551468,2.78083 0.682953,2.30714 0.435301,-0.16703 1.129914,-0.30371 1.543582,-0.30371 z"
         style="opacity:1;fill:#000000;fill-opacity:1;stroke:#000000;stroke-width:0.191929;stroke-linecap:butt;stroke-linejoin:round;stroke-miterlimit:4;stroke-dasharray:none;stroke-dashoffset:0;stroke-opacity:1;paint-order:normal" />
    </g>
  </g>
</svg>
