<?xml version="1.0" encoding="UTF-8" standalone="no"?>
<!-- Created with Inkscape (http://www.inkscape.org/) -->

<svg
   xmlns:dc="http://purl.org/dc/elements/1.1/"
   xmlns:cc="http://creativecommons.org/ns#"
   xmlns:rdf="http://www.w3.org/1999/02/22-rdf-syntax-ns#"
   xmlns:svg="http://www.w3.org/2000/svg"
   xmlns="http://www.w3.org/2000/svg"
   xmlns:sodipodi="http://sodipodi.sourceforge.net/DTD/sodipodi-0.dtd"
   xmlns:inkscape="http://www.inkscape.org/namespaces/inkscape"
   width="210mm"
   height="297mm"
   viewBox="0 0 210 297"
   version="1.1"
   id="svg6771"
   inkscape:version="0.92.3 (2405546, 2018-03-11)"
   sodipodi:docname="A.svg">
  <defs
     id="defs6765" />
  <sodipodi:namedview
     id="base"
     pagecolor="#ffffff"
     bordercolor="#666666"
     borderopacity="1.0"
     inkscape:pageopacity="0.0"
     inkscape:pageshadow="2"
     inkscape:zoom="0.35"
     inkscape:cx="-77.142857"
     inkscape:cy="560"
     inkscape:document-units="mm"
     inkscape:current-layer="layer1"
     showgrid="false"
     inkscape:window-width="1920"
     inkscape:window-height="1001"
     inkscape:window-x="-9"
     inkscape:window-y="-9"
     inkscape:window-maximized="1" />
  <metadata
     id="metadata6768">
    <rdf:RDF>
      <cc:Work
         rdf:about="">
        <dc:format>image/svg+xml</dc:format>
        <dc:type
           rdf:resource="http://purl.org/dc/dcmitype/StillImage" />
        <dc:title></dc:title>
      </cc:Work>
    </rdf:RDF>
  </metadata>
  <g
     inkscape:label="Layer 1"
     inkscape:groupmode="layer"
     id="layer1">
    <g
       transform="translate(-169.45325,23.550825)"
       id="g6717">
      <path
         inkscape:connector-curvature="0"
         id="path6446-0-4"
         d="m 260.34566,192.18352 -1.44103,-0.0287 v -28.68285 c 0,-27.27218 0.008,-28.6805 0.16536,-28.63511 0.81386,0.23499 4.13105,0.59755 6.6686,0.72886 2.15758,0.11165 5.09668,0.0206 7.39596,-0.22919 l 1.048,-0.11383 0.0622,4.01819 c 0.0342,2.20999 0.0622,15.04209 0.0623,28.51577 l 1.1e-4,24.49758 -6.26023,-0.021 c -3.44313,-0.0115 -6.90869,-0.0339 -7.70126,-0.0497 z"
         style="opacity:1;fill:#000000;fill-opacity:1;stroke:#000000;stroke-width:0.09500001;stroke-linecap:butt;stroke-linejoin:round;stroke-miterlimit:4;stroke-dasharray:none;stroke-dashoffset:0;stroke-opacity:1;paint-order:normal" />
      <path
         inkscape:connector-curvature="0"
         id="path6684"
         d="m 259.8513,135.37047 c -12.50956,-1.37842 -25.86615,-10.04615 -33.47993,-21.72674 -10.88818,-16.703941 -10.83566,-38.016554 0.13441,-54.543675 6.44242,-9.705914 17.22281,-17.41743 28.80193,-20.602833 6.29359,-1.731358 18.43799,-1.736735 24.85607,-0.011 17.75518,4.774114 31.55966,18.922601 35.88155,36.775687 1.43727,5.937226 1.56324,15.676636 0.27736,21.445445 -3.44421,15.451686 -14.33692,28.927076 -28.45265,35.198836 -7.51457,3.3388 -17.71351,4.59981 -28.01874,3.46428 z m -2.49386,-32.90076 c 0.43437,-0.43435 1.3144,-2.41882 1.95564,-4.409937 0.64125,-1.991122 1.63028,-4.702657 2.19787,-6.02564 1.01563,-2.367335 1.1059,-2.428232 5.69973,-3.845515 2.56725,-0.792048 5.4179,-1.561473 6.33474,-1.709832 l 1.66698,-0.269746 -0.25194,7.456125 c -0.24188,7.159845 -0.20984,7.456135 0.80664,7.456135 1.56535,0 2.27377,-1.170273 2.80953,-4.64113 0.26397,-1.710332 0.73093,-4.753329 1.03767,-6.762218 0.30675,-2.008891 0.4115,-3.889102 0.2328,-4.178244 -0.1787,-0.289142 0.11359,-0.846344 0.6495,-1.238226 0.83079,-0.607473 0.87733,-0.897739 0.31581,-1.968955 -0.36224,-0.691047 -0.76036,-4.022685 -0.88474,-7.403645 -0.12436,-3.38096 -0.39233,-6.578394 -0.59547,-7.105412 -0.20312,-0.527015 -1.32181,-1.444119 -2.48592,-2.038006 -1.61928,-0.826095 -2.0256,-1.291709 -1.72935,-1.98175 0.87535,-2.039041 0.89348,-3.828307 0.0421,-4.155019 -0.97546,-0.374317 -3.77666,1.220655 -5.65467,3.219701 -0.70771,0.753337 -1.57618,1.369705 -1.92993,1.369705 -0.98856,0 -1.83308,1.289566 -1.35313,2.066148 0.26048,0.421499 -0.15398,1.778563 -1.05571,3.456577 -0.81651,1.519447 -1.89738,4.205885 -2.40192,5.969865 -1.62086,5.66692 -3.17137,8.634846 -4.71318,9.021815 -0.85547,0.214715 -1.48312,0.808326 -1.63197,1.543474 -0.13304,0.657013 -0.37862,1.843333 -0.54579,2.636266 -0.2101,0.996849 -0.0426,1.587928 0.54298,1.91562 0.76298,0.426985 0.73859,0.803751 -0.2463,3.803899 -1.98678,6.051995 -2.10021,8.607675 -0.38208,8.607675 0.42923,0 1.13577,-0.35538 1.57014,-0.78973 z"
         style="opacity:1;fill:#000000;fill-opacity:1;stroke:#000000;stroke-width:0.191929;stroke-linecap:butt;stroke-linejoin:round;stroke-miterlimit:4;stroke-dasharray:none;stroke-dashoffset:0;stroke-opacity:1;paint-order:normal" />
      <path
         inkscape:connector-curvature="0"
         id="path6686"
         d="m 266.10745,80.904909 c 3.80846,-8.277764 4.52578,-9.711039 5.00978,-10.010171 0.28794,-0.177954 1.21531,0.41702 2.06084,1.322162 1.62356,1.738014 2.19334,4.722077 1.64034,8.590796 -0.0432,0.302521 -0.0806,0.556229 -0.12667,0.770635 -0.0127,0.05905 5.91233,-0.03522 5.89799,0.01807 -0.0279,0.103768 0.14927,0.522718 0.1117,0.606849 -0.0374,0.08366 -6.2556,0.333573 -6.2556,0.333573 -0.52375,0.115826 -1.15153,0.288281 -3.10193,0.517391 -1.76398,0.207209 -3.97812,0.491498 -4.92027,0.631751 l -1.71305,0.255006 -6.66042,0.816164 0.9202,-0.630289 6.01415,-0.781286 z"
         style="opacity:1;fill:#000000;fill-opacity:1;stroke:#000000;stroke-width:0.191929;stroke-linecap:butt;stroke-linejoin:round;stroke-miterlimit:4;stroke-dasharray:none;stroke-dashoffset:0;stroke-opacity:1;paint-order:normal"
         sodipodi:nodetypes="ccccssssccccccc" />
    </g>
  </g>
</svg>
