<?xml version="1.0" encoding="UTF-8" standalone="no"?>
<!-- Created with Inkscape (http://www.inkscape.org/) -->

<svg
   xmlns:dc="http://purl.org/dc/elements/1.1/"
   xmlns:cc="http://creativecommons.org/ns#"
   xmlns:rdf="http://www.w3.org/1999/02/22-rdf-syntax-ns#"
   xmlns:svg="http://www.w3.org/2000/svg"
   xmlns="http://www.w3.org/2000/svg"
   xmlns:sodipodi="http://sodipodi.sourceforge.net/DTD/sodipodi-0.dtd"
   xmlns:inkscape="http://www.inkscape.org/namespaces/inkscape"
   width="210mm"
   height="297mm"
   viewBox="0 0 210 297"
   version="1.1"
   id="svg6771"
   inkscape:version="0.92.3 (2405546, 2018-03-11)"
   sodipodi:docname="B.svg">
  <defs
     id="defs6765" />
  <sodipodi:namedview
     id="base"
     pagecolor="#ffffff"
     bordercolor="#666666"
     borderopacity="1.0"
     inkscape:pageopacity="0.0"
     inkscape:pageshadow="2"
     inkscape:zoom="0.35"
     inkscape:cx="-77.142857"
     inkscape:cy="560"
     inkscape:document-units="mm"
     inkscape:current-layer="layer1"
     showgrid="false"
     inkscape:window-width="1920"
     inkscape:window-height="1001"
     inkscape:window-x="-9"
     inkscape:window-y="-9"
     inkscape:window-maximized="1" />
  <metadata
     id="metadata6768">
    <rdf:RDF>
      <cc:Work
         rdf:about="">
        <dc:format>image/svg+xml</dc:format>
        <dc:type
           rdf:resource="http://purl.org/dc/dcmitype/StillImage" />
        <dc:title></dc:title>
      </cc:Work>
    </rdf:RDF>
  </metadata>
  <g
     inkscape:label="Layer 1"
     inkscape:groupmode="layer"
     id="layer1">
    <g
       transform="translate(-273.45932,30.600596)"
       id="g6763">
      <path
         inkscape:connector-curvature="0"
         id="path6446-0-50"
         d="m 362.08388,190.42542 -1.44103,-0.0287 v -28.68285 c 0,-27.27218 0.008,-28.6805 0.16536,-28.63511 0.81386,0.23499 4.13105,0.59755 6.6686,0.72886 2.15758,0.11165 5.09668,0.0206 7.39596,-0.22919 l 1.048,-0.11383 0.0622,4.01819 c 0.0342,2.20999 0.0622,15.04209 0.0623,28.51577 l 1.1e-4,24.49758 -6.26023,-0.021 c -3.44313,-0.0115 -6.90869,-0.0339 -7.70126,-0.0497 z"
         style="opacity:1;fill:#000000;fill-opacity:1;stroke:#000000;stroke-width:0.09500001;stroke-linecap:butt;stroke-linejoin:round;stroke-miterlimit:4;stroke-dasharray:none;stroke-dashoffset:0;stroke-opacity:1;paint-order:normal" />
      <path
         inkscape:connector-curvature="0"
         id="path6678"
         d="m 361.58953,133.61237 c -12.50958,-1.37843 -25.86614,-10.04615 -33.47995,-21.72675 -10.88818,-16.70394 -10.83564,-38.016553 0.13444,-54.543674 6.44242,-9.705914 17.22278,-17.417431 28.80193,-20.602832 6.29356,-1.731359 18.43796,-1.736735 24.85604,-0.01101 17.75518,4.774115 31.55969,18.922602 35.88155,36.775688 1.43727,5.937226 1.56324,15.676636 0.27736,21.445445 -3.44421,15.451703 -14.33692,28.927103 -28.45265,35.198863 -7.51457,3.33878 -17.71351,4.59981 -28.01872,3.46427 z m -2.4321,-30.4234 c 0.22672,-0.71431 1.53056,-1.29346 4.74377,-2.10708 11.81708,-2.992241 16.47587,-6.287857 14.07295,-9.955191 -1.28929,-1.967669 -2.7346,-2.777566 -8.97007,-5.026472 -3.2902,-1.186645 -5.54368,-2.291162 -5.54368,-2.717157 0,-0.394771 1.88659,-1.789424 4.1924,-3.099228 10.21445,-5.802233 13.52632,-8.964057 12.97922,-12.391123 -0.15838,-0.991952 -0.68334,-2.240473 -1.16663,-2.774492 -2.45687,-2.714794 -11.98994,-3.456292 -19.66574,-1.529628 -4.81094,1.207572 -6.76275,2.459445 -6.76275,4.337577 0,1.141275 1.14949,1.232625 4.59462,0.365133 1.31744,-0.331735 2.53839,-0.460084 2.71325,-0.285224 0.17487,0.174863 -0.39732,1.13257 -1.27153,2.128237 -1.40221,1.597028 -1.6302,2.338443 -1.93516,6.293091 -0.33539,4.349443 -0.4055,4.534405 -2.35707,6.21829 l -2.01139,1.735505 1.73194,1.477426 1.73193,1.477425 -0.34575,5.52904 -0.34574,5.529038 -1.78048,1.152702 c -0.97925,0.633981 -1.78345,1.444911 -1.78708,1.802061 -0.009,0.89244 1.86971,1.82297 2.89013,1.43141 0.49818,-0.19118 0.96893,0.0256 1.16498,0.53646 0.45688,1.19061 2.73902,1.09737 3.12788,-0.1278 z"
         style="opacity:1;fill:#000000;fill-opacity:1;stroke:#000000;stroke-width:0.191929;stroke-linecap:butt;stroke-linejoin:round;stroke-miterlimit:4;stroke-dasharray:none;stroke-dashoffset:0;stroke-opacity:1;paint-order:normal" />
      <path
         sodipodi:nodetypes="cccsssssssssscc"
         inkscape:connector-curvature="0"
         id="path6680"
         d="m 360.26214,96.212552 c 0.12028,-0.76612 0.36471,-2.772275 0.54317,-4.458121 0.17849,-1.685845 0.54287,-3.200138 0.80978,-3.365095 0.49237,-0.304304 2.68637,0.268117 4.95751,1.091653 0.0924,0.03351 1.60482,-3.874794 1.69737,-3.840496 0.31605,0.117115 0.53208,0.13836 0.84419,0.26251 0.0308,0.01225 -1.25808,4.066979 -1.22737,4.07928 2.32428,0.930902 4.39352,2.001915 4.39352,2.514363 0,0.35395 -2.0348,1.466286 -4.35713,2.530029 -0.0701,0.03213 1.76375,4.40734 1.69314,4.43936 -0.29455,0.133543 -0.59282,0.148997 -0.89132,0.27861 -0.0833,0.03617 -2.07089,-4.154089 -2.15414,-4.118387 -1.79982,0.771787 -3.57263,1.426349 -4.55167,1.609545 -1.90151,0.355808 -1.96752,0.317362 -1.75705,-1.023247 z"
         style="opacity:1;fill:#000000;fill-opacity:1;stroke:#000000;stroke-width:0.191929;stroke-linecap:butt;stroke-linejoin:round;stroke-miterlimit:4;stroke-dasharray:none;stroke-dashoffset:0;stroke-opacity:1;paint-order:normal" />
      <path
         sodipodi:nodetypes="ccsssscsssssccc"
         inkscape:connector-curvature="0"
         id="path6682"
         d="m 362.65869,78.649799 c 1.3e-4,-0.621919 1.59197,-8.841801 1.90976,-9.861629 0.15565,-0.499457 0.75369,-1.057498 1.329,-1.240092 0.032,-0.01015 -0.31248,-4.921419 -0.2774,-4.930049 0.14843,-0.03655 0.58344,-0.03596 0.78009,-0.04679 0.0389,-0.0021 0.19672,4.874455 0.23729,4.873255 2.05242,-0.0606 6.15715,1.076121 7.0665,2.080944 0.85119,0.940549 0.841,1.083519 -0.17484,2.455646 -0.47247,0.63818 -2.15949,1.982017 -4.07566,3.279581 -0.0433,0.0293 1.70874,3.011512 1.66525,3.040754 -0.21193,0.142506 -0.33187,0.213374 -0.5475,0.353346 -0.0643,0.04172 -2.01854,-2.798778 -2.08299,-2.757391 -0.17729,0.113831 -0.35512,0.226274 -0.53276,0.336775 -4.50299,2.801075 -5.2969,3.16315 -5.29674,2.415641 z"
         style="opacity:1;fill:#000000;fill-opacity:1;stroke:#000000;stroke-width:0.191929;stroke-linecap:butt;stroke-linejoin:round;stroke-miterlimit:4;stroke-dasharray:none;stroke-dashoffset:0;stroke-opacity:1;paint-order:normal" />
    </g>
  </g>
</svg>
