<?xml version="1.0" encoding="UTF-8" standalone="no"?>
<!-- Created with Inkscape (http://www.inkscape.org/) -->

<svg
   xmlns:dc="http://purl.org/dc/elements/1.1/"
   xmlns:cc="http://creativecommons.org/ns#"
   xmlns:rdf="http://www.w3.org/1999/02/22-rdf-syntax-ns#"
   xmlns:svg="http://www.w3.org/2000/svg"
   xmlns="http://www.w3.org/2000/svg"
   xmlns:sodipodi="http://sodipodi.sourceforge.net/DTD/sodipodi-0.dtd"
   xmlns:inkscape="http://www.inkscape.org/namespaces/inkscape"
   width="210mm"
   height="297mm"
   viewBox="0 0 210 297"
   version="1.1"
   id="svg6771"
   inkscape:version="0.92.3 (2405546, 2018-03-11)"
   sodipodi:docname="C.svg">
  <defs
     id="defs6765" />
  <sodipodi:namedview
     id="base"
     pagecolor="#ffffff"
     bordercolor="#666666"
     borderopacity="1.0"
     inkscape:pageopacity="0.0"
     inkscape:pageshadow="2"
     inkscape:zoom="0.35"
     inkscape:cx="-77.142857"
     inkscape:cy="560"
     inkscape:document-units="mm"
     inkscape:current-layer="layer1"
     showgrid="false"
     inkscape:window-width="1920"
     inkscape:window-height="1001"
     inkscape:window-x="-9"
     inkscape:window-y="-9"
     inkscape:window-maximized="1" />
  <metadata
     id="metadata6768">
    <rdf:RDF>
      <cc:Work
         rdf:about="">
        <dc:format>image/svg+xml</dc:format>
        <dc:type
           rdf:resource="http://purl.org/dc/dcmitype/StillImage" />
        <dc:title></dc:title>
      </cc:Work>
    </rdf:RDF>
  </metadata>
  <g
     inkscape:label="Layer 1"
     inkscape:groupmode="layer"
     id="layer1">
    <g
       transform="rotate(-90,87.383407,225.23184)"
       id="g6704">
      <path
         inkscape:connector-curvature="0"
         id="path6446-0-1"
         d="m 87.013154,237.86319 0.0287,-1.44103 H 115.7247 c 27.27218,0 28.6805,0.008 28.63511,0.16536 -0.23499,0.81386 -0.59755,4.13105 -0.72886,6.6686 -0.11165,2.15758 -0.0206,5.09668 0.22919,7.39596 l 0.11383,1.048 -4.01819,0.0622 c -2.20999,0.0342 -15.04209,0.0622 -28.51577,0.0623 l -24.497576,1.1e-4 0.021,-6.26023 c 0.0115,-3.44313 0.0339,-6.90869 0.0497,-7.70126 z"
         style="opacity:1;fill:#000000;fill-opacity:1;stroke:#000000;stroke-width:0.09500001;stroke-linecap:butt;stroke-linejoin:round;stroke-miterlimit:4;stroke-dasharray:none;stroke-dashoffset:0;stroke-opacity:1;paint-order:normal" />
      <path
         inkscape:connector-curvature="0"
         id="path6690"
         d="m 143.75103,238.22812 c 1.59091,-15.57451 12.37649,-30.46597 27.26861,-37.64933 22.42667,-10.8177 49.4265,-3.35571 63.05855,17.4276 5.96751,9.09804 8.4043,18.00045 8.01536,29.28281 -0.28561,8.28577 -1.66751,13.57371 -5.47632,20.95577 -5.90883,11.45215 -16.24221,20.20186 -28.59103,24.20924 -5.90539,1.91641 -8.40676,2.28238 -15.52903,2.27203 -7.08559,-0.0103 -10.33767,-0.52178 -16.06397,-2.5265 -18.1466,-6.35299 -31.53788,-23.1679 -32.89855,-41.3094 -0.41508,-5.53397 -0.39566,-6.67075 0.21638,-12.66222 z m 32.10692,10.12651 c 0.7425,1.56355 2.13825,4.16793 3.10165,5.78749 l 1.75163,2.94468 1.33786,-0.55898 c 1.79517,-0.75007 1.78509,-0.72353 0.76224,-2.00716 -3.67459,-4.61139 -5.34823,-9.31907 -4.47111,-12.57646 0.57552,-2.13725 2.56958,-4.46884 4.89653,-5.72535 2.93852,-1.5867 5.99184,-1.86243 10.56482,-0.95403 4.13861,0.82208 6.93009,2.0053 9.74484,4.13046 2.41117,1.82044 3.74991,3.74682 4.45108,6.40488 0.46466,1.76135 0.45146,2.19469 -0.11808,3.87892 -0.94081,2.78217 -1.83396,2.95172 -4.72858,0.89762 -1.48363,-1.05283 -7.30851,-2.52118 -10.00141,-2.52118 -2.78225,0 -3.05819,0.32813 -2.29656,2.7311 0.48218,1.52128 0.67353,1.68014 3.46052,2.87269 4.00706,1.71463 10.34785,2.89356 13.65681,2.53921 3.25017,-0.34806 4.16885,-1.13541 4.94821,-4.2409 1.17999,-4.70165 -0.85222,-9.47658 -6.4234,-15.0926 -2.85977,-2.88282 -3.98872,-3.72714 -6.9492,-5.19719 -1.94408,-0.96536 -3.86876,-1.75519 -4.27707,-1.75519 -0.4083,0 -1.0946,-0.18849 -1.52513,-0.41891 -0.43051,-0.2304 -2.54273,-0.47631 -4.69385,-0.54647 -3.34742,-0.1092 -4.2945,0.003 -6.57158,0.77731 -1.46328,0.49769 -3.13706,1.24423 -3.71952,1.65897 -2.81688,2.0058 -4.69915,6.92221 -4.41269,11.52588 0.12293,1.97551 0.48712,3.28719 1.51199,5.44521 z"
         style="opacity:1;fill:#000000;fill-opacity:1;stroke:#000000;stroke-width:0.13571428;stroke-linecap:butt;stroke-linejoin:round;stroke-miterlimit:4;stroke-dasharray:none;stroke-dashoffset:0;stroke-opacity:1;paint-order:normal" />
    </g>
  </g>
</svg>
