<?xml version="1.0" encoding="UTF-8" standalone="no"?>
<!-- Created with Inkscape (http://www.inkscape.org/) -->

<svg
   xmlns:dc="http://purl.org/dc/elements/1.1/"
   xmlns:cc="http://creativecommons.org/ns#"
   xmlns:rdf="http://www.w3.org/1999/02/22-rdf-syntax-ns#"
   xmlns:svg="http://www.w3.org/2000/svg"
   xmlns="http://www.w3.org/2000/svg"
   xmlns:sodipodi="http://sodipodi.sourceforge.net/DTD/sodipodi-0.dtd"
   xmlns:inkscape="http://www.inkscape.org/namespaces/inkscape"
   width="420mm"
   height="594mm"
   viewBox="0 0 420 594"
   version="1.1"
   id="svg5689"
   inkscape:version="0.92.3 (2405546, 2018-03-11)"
   sodipodi:docname="digital.svg">
  <defs
     id="defs5683" />
  <sodipodi:namedview
     id="base"
     pagecolor="#ffffff"
     bordercolor="#666666"
     borderopacity="1.0"
     inkscape:pageopacity="0.0"
     inkscape:pageshadow="2"
     inkscape:zoom="0.35"
     inkscape:cx="696.40754"
     inkscape:cy="802.26447"
     inkscape:document-units="mm"
     inkscape:current-layer="layer1"
     showgrid="false"
     inkscape:window-width="1920"
     inkscape:window-height="1001"
     inkscape:window-x="-9"
     inkscape:window-y="-9"
     inkscape:window-maximized="1" />
  <metadata
     id="metadata5686">
    <rdf:RDF>
      <cc:Work
         rdf:about="">
        <dc:format>image/svg+xml</dc:format>
        <dc:type
           rdf:resource="http://purl.org/dc/dcmitype/StillImage" />
        <dc:title></dc:title>
      </cc:Work>
    </rdf:RDF>
  </metadata>
  <g
     inkscape:label="Layer 1"
     inkscape:groupmode="layer"
     id="layer1"
     transform="translate(0,297)">
    <text
       xml:space="preserve"
       style="font-style:normal;font-variant:normal;font-weight:normal;font-stretch:normal;font-size:58.03543091px;line-height:1.25;font-family:Mistral;-inkscape-font-specification:Mistral;letter-spacing:0px;word-spacing:0px;fill:#000000;fill-opacity:1;stroke:none;stroke-width:3.62721443"
       x="7.0747571"
       y="-160.13135"
       id="text6236"
       transform="scale(1.0383391,0.96307652)"><tspan
         sodipodi:role="line"
         id="tspan6234"
         x="7.0747571"
         y="-160.13135"
         style="font-style:normal;font-variant:normal;font-weight:normal;font-stretch:normal;font-family:Mistral;-inkscape-font-specification:Mistral;stroke-width:3.62721443">1</tspan></text>
    <text
       xml:space="preserve"
       style="font-style:normal;font-variant:normal;font-weight:normal;font-stretch:normal;font-size:58.03543091px;line-height:1.25;font-family:Mistral;-inkscape-font-specification:Mistral;letter-spacing:0px;word-spacing:0px;fill:#000000;fill-opacity:1;stroke:none;stroke-width:3.62721443"
       x="106.76992"
       y="-159.50858"
       id="text6236-7"
       transform="scale(1.0383391,0.96307652)"><tspan
         sodipodi:role="line"
         id="tspan6234-8"
         x="106.76992"
         y="-159.50858"
         style="font-style:normal;font-variant:normal;font-weight:normal;font-stretch:normal;font-family:Mistral;-inkscape-font-specification:Mistral;stroke-width:3.62721443">2</tspan></text>
    <text
       xml:space="preserve"
       style="font-style:normal;font-variant:normal;font-weight:normal;font-stretch:normal;font-size:58.03543091px;line-height:1.25;font-family:Mistral;-inkscape-font-specification:Mistral;letter-spacing:0px;word-spacing:0px;fill:#000000;fill-opacity:1;stroke:none;stroke-width:3.62721443"
       x="203.87671"
       y="-160.12668"
       id="text6236-7-8"
       transform="scale(1.0383391,0.96307652)"><tspan
         sodipodi:role="line"
         id="tspan6234-8-9"
         x="203.87671"
         y="-160.12668"
         style="font-style:normal;font-variant:normal;font-weight:normal;font-stretch:normal;font-family:Mistral;-inkscape-font-specification:Mistral;stroke-width:3.62721443">3</tspan></text>
    <text
       xml:space="preserve"
       style="font-style:normal;font-variant:normal;font-weight:normal;font-stretch:normal;font-size:58.03543091px;line-height:1.25;font-family:Mistral;-inkscape-font-specification:Mistral;letter-spacing:0px;word-spacing:0px;fill:#000000;fill-opacity:1;stroke:none;stroke-width:3.62721443"
       x="302.27866"
       y="-159.61472"
       id="text6236-7-82"
       transform="scale(1.0383391,0.96307652)"><tspan
         sodipodi:role="line"
         id="tspan6234-8-1"
         x="302.27866"
         y="-159.61472"
         style="font-style:normal;font-variant:normal;font-weight:normal;font-stretch:normal;font-family:Mistral;-inkscape-font-specification:Mistral;stroke-width:3.62721443">4</tspan></text>
    <text
       xml:space="preserve"
       style="font-style:normal;font-variant:normal;font-weight:normal;font-stretch:normal;font-size:58.03543091px;line-height:1.25;font-family:Mistral;-inkscape-font-specification:Mistral;letter-spacing:0px;word-spacing:0px;fill:#000000;fill-opacity:1;stroke:none;stroke-width:3.62721443"
       x="16.075422"
       y="9.8305626"
       id="text6236-7-6"
       transform="scale(1.0383391,0.96307652)"><tspan
         sodipodi:role="line"
         id="tspan6234-8-94"
         x="16.075422"
         y="9.8305626"
         style="font-style:normal;font-variant:normal;font-weight:normal;font-stretch:normal;font-family:Mistral;-inkscape-font-specification:Mistral;stroke-width:3.62721443">5</tspan></text>
    <text
       xml:space="preserve"
       style="font-style:normal;font-variant:normal;font-weight:normal;font-stretch:normal;font-size:58.03543091px;line-height:1.25;font-family:Mistral;-inkscape-font-specification:Mistral;letter-spacing:0px;word-spacing:0px;fill:#000000;fill-opacity:1;stroke:none;stroke-width:3.62721443"
       x="118.13374"
       y="10.475038"
       id="text6236-7-9"
       transform="scale(1.0383391,0.96307652)"><tspan
         sodipodi:role="line"
         id="tspan6234-8-96"
         x="118.13374"
         y="10.475038"
         style="font-style:normal;font-variant:normal;font-weight:normal;font-stretch:normal;font-family:Mistral;-inkscape-font-specification:Mistral;stroke-width:3.62721443">6</tspan></text>
    <text
       xml:space="preserve"
       style="font-style:normal;font-variant:normal;font-weight:normal;font-stretch:normal;font-size:58.03543091px;line-height:1.25;font-family:Mistral;-inkscape-font-specification:Mistral;letter-spacing:0px;word-spacing:0px;fill:#000000;fill-opacity:1;stroke:none;stroke-width:3.62721443"
       x="313.8793"
       y="6.8141422"
       id="text6236-7-5"
       transform="scale(1.0383391,0.96307652)"><tspan
         sodipodi:role="line"
         id="tspan6234-8-93"
         x="313.8793"
         y="6.8141422"
         style="font-style:normal;font-variant:normal;font-weight:normal;font-stretch:normal;font-family:Mistral;-inkscape-font-specification:Mistral;stroke-width:3.62721443">8</tspan></text>
    <text
       xml:space="preserve"
       style="font-style:normal;font-variant:normal;font-weight:normal;font-stretch:normal;font-size:58.03543091px;line-height:1.25;font-family:Mistral;-inkscape-font-specification:Mistral;letter-spacing:0px;word-spacing:0px;fill:#000000;fill-opacity:1;stroke:none;stroke-width:3.62721443"
       x="20.956966"
       y="185.67348"
       id="text6236-7-62"
       transform="scale(1.0383391,0.96307652)"><tspan
         sodipodi:role="line"
         id="tspan6234-8-0"
         x="20.956966"
         y="185.67348"
         style="font-style:normal;font-variant:normal;font-weight:normal;font-stretch:normal;font-family:Mistral;-inkscape-font-specification:Mistral;stroke-width:3.62721443">9</tspan></text>
    <text
       xml:space="preserve"
       style="font-style:normal;font-variant:normal;font-weight:normal;font-stretch:normal;font-size:58.03543091px;line-height:1.25;font-family:Mistral;-inkscape-font-specification:Mistral;letter-spacing:0px;word-spacing:0px;fill:#000000;fill-opacity:1;stroke:none;stroke-width:3.62721443"
       x="122.05822"
       y="180.83315"
       id="text6236-7-0"
       transform="scale(1.0383391,0.96307652)"><tspan
         sodipodi:role="line"
         id="tspan6234-8-48"
         x="122.05822"
         y="180.83315"
         style="font-style:normal;font-variant:normal;font-weight:normal;font-stretch:normal;font-family:Mistral;-inkscape-font-specification:Mistral;stroke-width:3.62721443">0</tspan></text>
    <text
       xml:space="preserve"
       style="font-style:normal;font-variant:normal;font-weight:normal;font-stretch:normal;font-size:58.03543091px;line-height:1.25;font-family:Mistral;-inkscape-font-specification:Mistral;letter-spacing:0px;word-spacing:0px;fill:#000000;fill-opacity:1;stroke:none;stroke-width:3.62721443"
       x="218.44038"
       y="180.15498"
       id="text6236-7-56"
       transform="scale(1.0383391,0.96307652)"><tspan
         sodipodi:role="line"
         id="tspan6234-8-3"
         x="218.44038"
         y="180.15498"
         style="font-style:normal;font-variant:normal;font-weight:normal;font-stretch:normal;font-family:Mistral;-inkscape-font-specification:Mistral;stroke-width:3.62721443">A</tspan></text>
    <text
       xml:space="preserve"
       style="font-style:normal;font-variant:normal;font-weight:normal;font-stretch:normal;font-size:58.03543091px;line-height:1.25;font-family:Mistral;-inkscape-font-specification:Mistral;letter-spacing:0px;word-spacing:0px;fill:#000000;fill-opacity:1;stroke:none;stroke-width:3.62721443"
       x="317.99545"
       y="179.22357"
       id="text6236-7-4"
       transform="scale(1.0383391,0.96307652)"><tspan
         sodipodi:role="line"
         id="tspan6234-8-2"
         x="317.99545"
         y="179.22357"
         style="font-style:normal;font-variant:normal;font-weight:normal;font-stretch:normal;font-family:Mistral;-inkscape-font-specification:Mistral;stroke-width:3.62721443">B</tspan></text>
    <g
       id="g6721">
      <path
         inkscape:connector-curvature="0"
         id="path6446"
         d="m 44.071054,-139.48255 -1.44103,-0.0287 v -28.68285 c 0,-27.27219 0.008,-28.6805 0.16536,-28.63511 0.81386,0.23499 4.13105,0.59755 6.6686,0.72886 2.15758,0.11165 5.09668,0.0206 7.39596,-0.22919 l 1.048,-0.11384 0.0622,4.01819 c 0.0342,2.21 0.0622,15.0421 0.0623,28.51577 l 1.2e-4,24.49758 -6.26023,-0.021 c -3.44313,-0.0115 -6.9087,-0.0339 -7.70127,-0.0497 z"
         style="opacity:1;fill:#000000;fill-opacity:1;stroke:#000000;stroke-width:0.095;stroke-linecap:butt;stroke-linejoin:round;stroke-miterlimit:4;stroke-dasharray:none;stroke-dashoffset:0;stroke-opacity:1;paint-order:normal" />
      <path
         inkscape:connector-curvature="0"
         id="path6474"
         d="m 44.846873,-195.99734 c -10.588215,-1.34959 -22.587429,-7.51574 -29.516064,-15.16769 -6.0460949,-6.67727 -9.9304479,-13.85602 -12.1128739,-22.38605 -1.311661,-5.12663 -1.656644,-14.51125 -0.729464,-19.84375 5.033378,-28.94854 33.3209499,-47.22362 61.6879259,-39.85326 18.566447,4.82397 32.943166,20.51418 36.247523,39.55918 0.78062,4.49916 0.77223,12.63727 -0.0176,17.11237 -3.685307,20.87961 -20.576496,37.2446 -41.763289,40.46228 -3.925189,0.59612 -9.65555,0.64469 -13.796131,0.11692 z m 4.806609,-30.2777 c 1.718434,-1.83241 2.824329,-4.04043 3.540124,-7.06821 0.272759,-1.15374 0.935485,-3.88364 1.472724,-6.06646 0.537239,-2.18281 1.034328,-4.90424 1.104644,-6.04762 0.07031,-1.14338 0.405103,-3.32313 0.743981,-4.8439 0.338879,-1.52077 0.616144,-3.43112 0.616144,-4.24522 0,-0.8141 0.204126,-2.67054 0.453612,-4.12544 0.668049,-3.89578 0.144941,-4.91124 -3.020113,-5.8626 -0.726535,-0.21839 -1.386663,0.24566 -4.108863,2.8884 -3.339901,3.24241 -7.40606,7.82139 -10.25788,11.55161 -1.316452,1.72194 -1.603681,2.37675 -1.511905,3.44675 0.06232,0.72653 0.296195,1.38089 0.519728,1.45415 0.223539,0.0733 2.306873,-1.64815 4.629632,-3.82536 4.321794,-4.05097 6.521733,-5.88779 7.051738,-5.88779 0.164553,0 0.177123,0.80792 0.02793,1.79539 -0.149182,0.98746 -0.40931,3.41123 -0.578061,5.38615 -0.404477,4.73375 -2.421832,16.17364 -3.42469,19.42051 -0.437441,1.41627 -0.703736,2.81376 -0.591772,3.10554 0.386024,1.00596 1.812464,0.54551 3.333017,-1.0759 z"
         style="opacity:1;fill:#000000;fill-opacity:1;stroke:#000000;stroke-width:0.13571428;stroke-linecap:butt;stroke-linejoin:round;stroke-miterlimit:4;stroke-dasharray:none;stroke-dashoffset:0;stroke-opacity:1;paint-order:normal" />
    </g>
    <g
       id="g6725">
      <path
         inkscape:connector-curvature="0"
         id="path6446-0"
         d="m 145.06628,-138.00262 -1.44103,-0.0287 v -28.68285 c 0,-27.27219 0.008,-28.6805 0.16536,-28.63511 0.81386,0.23499 4.13105,0.59755 6.6686,0.72886 2.15758,0.11165 5.09668,0.0206 7.39596,-0.22919 l 1.048,-0.11384 0.0622,4.01819 c 0.0342,2.21 0.0622,15.0421 0.0623,28.51577 l 1.1e-4,24.49758 -6.26023,-0.021 c -3.44313,-0.0115 -6.90869,-0.0339 -7.70126,-0.0497 z"
         style="opacity:1;fill:#000000;fill-opacity:1;stroke:#000000;stroke-width:0.09500001;stroke-linecap:butt;stroke-linejoin:round;stroke-miterlimit:4;stroke-dasharray:none;stroke-dashoffset:0;stroke-opacity:1;paint-order:normal" />
      <path
         inkscape:connector-curvature="0"
         id="path6476"
         d="m 142.72586,-195.02259 c -34.16902,-7.48936 -50.532969,-45.47666 -32.23605,-74.83286 6.94218,-11.13828 18.91298,-19.52373 31.95996,-22.38771 5.65884,-1.24219 15.46153,-1.08669 21.39039,0.33932 6.35121,1.52759 14.64782,5.62264 19.81787,9.78173 7.83387,6.30203 14.26541,16.2316 16.89979,26.0914 1.69603,6.34776 1.7071,18.5883 0.0223,24.69488 -4.84743,17.57003 -18.3839,31.12468 -35.67093,35.71885 -6.18568,1.64389 -16.17414,1.91152 -22.18337,0.59439 z m 14.66166,-32.93477 c 3.42479,-0.82113 6.02154,-2.81657 5.48496,-4.21487 -0.26978,-0.70302 -1.245,-0.77653 -6.67823,-0.50334 -6.19269,0.31136 -9.19207,0.0465 -9.19207,-0.81165 0,-0.23173 2.4953,-3.61365 5.54512,-7.51539 8.47812,-10.84635 10.0679,-14.65452 7.96164,-19.0714 -1.36808,-2.86889 -4.16915,-4.11299 -9.91546,-4.40399 -5.1073,-0.25865 -9.02259,0.73026 -9.98093,2.52094 -1.09337,2.04299 -1.1063,5.62314 -0.0267,7.39837 1.21593,1.99943 2.34317,1.85132 3.132,-0.41152 1.09278,-3.13475 5.58153,-3.98432 10.36699,-1.96211 1.65053,0.69746 2.00452,1.11659 2.00452,2.3733 0,2.07379 -2.44177,5.78806 -7.99339,12.15905 -6.79735,7.80057 -8.57732,10.29136 -8.57732,12.00262 0,2.9025 2.6284,3.85149 9.6217,3.47395 2.79297,-0.15078 6.5042,-0.61607 8.24719,-1.03396 z"
         style="opacity:1;fill:#000000;fill-opacity:1;stroke:#000000;stroke-width:0.191929;stroke-linecap:butt;stroke-linejoin:round;stroke-miterlimit:4;stroke-dasharray:none;stroke-dashoffset:0;stroke-opacity:1;paint-order:normal" />
    </g>
    <g
       id="g6729">
      <path
         inkscape:connector-curvature="0"
         id="path6446-0-3"
         d="m 246.42303,-136.61389 -1.44103,-0.0287 v -28.68285 c 0,-27.27218 0.008,-28.6805 0.16536,-28.63511 0.81386,0.23499 4.13105,0.59755 6.6686,0.72886 2.15758,0.11165 5.09668,0.0206 7.39596,-0.22919 l 1.048,-0.11383 0.0622,4.01819 c 0.0342,2.20999 0.0622,15.04209 0.0623,28.51577 l 1.1e-4,24.49758 -6.26023,-0.021 c -3.44313,-0.0115 -6.90869,-0.0339 -7.70126,-0.0497 z"
         style="opacity:1;fill:#000000;fill-opacity:1;stroke:#000000;stroke-width:0.09500001;stroke-linecap:butt;stroke-linejoin:round;stroke-miterlimit:4;stroke-dasharray:none;stroke-dashoffset:0;stroke-opacity:1;paint-order:normal" />
      <path
         inkscape:connector-curvature="0"
         id="path6656"
         d="m 247.85504,-193.18727 c -1.02899,-0.13315 -2.59252,-0.29407 -3.47451,-0.35761 -3.18489,-0.22946 -9.91106,-2.61351 -14.43255,-5.11553 -13.96568,-7.72807 -23.40248,-21.59129 -25.40684,-37.32416 -0.53227,-4.17804 -0.41386,-11.00638 0.25327,-14.60403 2.99563,-16.15479 12.84069,-29.25983 27.26639,-36.29509 16.89927,-8.24158 36.5453,-6.37008 51.6901,4.92405 13.764,10.26439 21.40445,27.81209 19.54776,44.895 -2.30841,21.23912 -17.82109,38.63585 -38.67771,43.37522 -1.86256,0.42323 -3.60067,0.5518 -8.6142,0.63722 -3.45446,0.0589 -7.12272,-0.002 -8.15171,-0.13507 z m 1.77623,-34.94583 c 2.48459,-0.75622 7.54547,-3.54863 10.11772,-5.58262 3.3655,-2.66122 4.80854,-5.0562 4.26429,-7.07739 -0.57798,-2.14643 -2.75307,-3.66805 -7.73925,-5.41408 -2.96238,-1.03736 -2.92926,-0.99994 -2.13815,-2.4155 0.36748,-0.65757 2.17157,-3.12987 4.00904,-5.49398 5.19833,-6.68821 5.61266,-7.32756 5.61266,-8.66081 0,-2.44233 -2.23231,-4.15441 -5.68846,-4.36278 -2.94267,-0.17741 -9.65308,0.85552 -11.38994,1.75325 -1.1656,0.60247 -2.28526,2.33563 -2.78601,4.31248 -0.68699,2.71221 -0.17344,2.99119 3.45199,1.87522 4.65535,-1.43302 8.60359,-1.95461 9.55109,-1.26178 0.4204,0.30739 0.3778,0.46307 -0.53012,1.9377 -1.14422,1.85849 -4.67434,6.56106 -7.17791,9.56191 -1.82763,2.19065 -2.01792,2.77378 -1.44322,4.42243 0.27411,0.78624 0.494,0.89782 3.8086,1.9326 4.18116,1.3053 6.27454,2.09452 6.49293,2.44787 0.49323,0.79809 -4.73517,4.4076 -12.76184,8.81033 -2.98141,1.63534 -3.97776,2.38415 -3.97776,2.98949 0,0.0727 0.18403,0.31614 0.40895,0.54106 0.60169,0.60169 5.55009,0.40451 7.91539,-0.3154 z"
         style="opacity:1;fill:#000000;fill-opacity:1;stroke:#000000;stroke-width:0.0959645;stroke-linecap:butt;stroke-linejoin:round;stroke-miterlimit:4;stroke-dasharray:none;stroke-dashoffset:0;stroke-opacity:1;paint-order:normal" />
    </g>
    <g
       id="g6742">
      <path
         inkscape:connector-curvature="0"
         id="path6446-0-7"
         d="m 45.118282,27.576477 -1.441029,-0.0287 V -1.1350732 c 0,-27.2721798 0.008,-28.6804998 0.165359,-28.6351098 0.813861,0.23499 4.131051,0.59755 6.668601,0.72886 2.157581,0.11165 5.096682,0.0206 7.395961,-0.22919 l 1.047999,-0.11383 0.0622,4.01819 c 0.0342,2.20999 0.0622,15.04209 0.0623,28.5157698 l 1.12e-4,24.4975802 -6.26023,-0.021 c -3.443131,-0.0115 -6.908692,-0.0339 -7.701261,-0.0497 z"
         style="opacity:1;fill:#000000;fill-opacity:1;stroke:#000000;stroke-width:0.09500001;stroke-linecap:butt;stroke-linejoin:round;stroke-miterlimit:4;stroke-dasharray:none;stroke-dashoffset:0;stroke-opacity:1;paint-order:normal" />
      <path
         inkscape:connector-curvature="0"
         id="path6658"
         d="m 43.245775,-29.469035 c -1.76398,-0.233547 -5.011304,-1.068599 -7.216278,-1.855681 -16.980974,-6.061499 -29.2161164,-20.65065 -32.339512,-38.561539 -4.49113879,-25.754086 12.456469,-50.821535 38.302271,-56.653425 5.932469,-1.33862 16.054638,-1.22166 22.034788,0.2546 11.398948,2.81395 22.039685,10.00684 28.996219,19.60078 2.948273,4.06604 6.453806,11.809626 7.758097,17.13735 1.62703,6.646013 1.63039,16.261646 0.008,22.887315 -4.370154,17.847257 -18.50383,32.201035 -36.113883,36.67625 -4.510008,1.146122 -14.793219,1.392952 -21.429691,0.51435 z m 13.919343,-33.410868 c 4.114112,-1.071298 7.513465,-3.082052 8.528319,-5.044572 1.985796,-3.840083 0.622242,-5.841656 -7.803115,-11.454191 -3.896487,-2.595639 -7.13006,-5.133456 -7.37112,-5.785104 -0.938919,-2.538135 1.574909,-7.345566 3.848066,-7.359028 0.351102,-0.0021 2.923519,-0.345797 5.716487,-0.763821 4.679738,-0.700415 5.194548,-0.899051 6.562198,-2.531972 2.613538,-3.120467 2.156733,-3.363616 -6.631233,-3.529679 -4.293537,-0.08114 -8.398949,0.07776 -9.123132,0.353092 -0.768255,0.292089 -2.1652,1.912104 -3.35375,3.88929 -1.707806,2.840979 -2.077241,3.993449 -2.285738,7.130452 -0.314929,4.738409 0.07368,5.266544 8.382394,11.391915 3.400094,2.50661 6.353701,4.81756 6.563566,5.135404 0.209865,0.317871 0.08959,0.860505 -0.267269,1.205892 -0.863608,0.835818 -9.548013,3.313509 -13.076877,3.730889 -2.484464,0.293846 -2.80633,0.474292 -2.80633,1.573213 0,0.980387 0.421333,1.35673 2.00452,1.790541 4.538057,1.243383 7.126592,1.305745 11.113014,0.267679 z"
         style="opacity:1;fill:#000000;fill-opacity:1;stroke:#000000;stroke-width:0.191929;stroke-linecap:butt;stroke-linejoin:round;stroke-miterlimit:4;stroke-dasharray:none;stroke-dashoffset:0;stroke-opacity:1;paint-order:normal" />
    </g>
    <g
       id="g6751">
      <path
         inkscape:connector-curvature="0"
         id="path6446-0-30"
         d="m 258.06353,26.692732 -1.44103,-0.0287 V -2.0188173 c 0,-27.2721807 0.008,-28.6805007 0.16536,-28.6351107 0.81386,0.23499 4.13105,0.59755 6.6686,0.72886 2.15758,0.11165 5.09668,0.0206 7.39596,-0.22919 l 1.048,-0.11383 0.0622,4.01819 c 0.0342,2.20999 0.0622,15.04209 0.0623,28.5157707 l 1.1e-4,24.4975793 -6.26023,-0.021 c -3.44313,-0.0115 -6.90869,-0.0339 -7.70126,-0.0497 z"
         style="opacity:1;fill:#000000;fill-opacity:1;stroke:#000000;stroke-width:0.09500001;stroke-linecap:butt;stroke-linejoin:round;stroke-miterlimit:4;stroke-dasharray:none;stroke-dashoffset:0;stroke-opacity:1;paint-order:normal" />
      <path
         inkscape:connector-curvature="0"
         id="path6662"
         d="m 256.6671,-30.237916 c -15.19324,-2.100447 -30.38279,-14.239689 -36.83733,-29.439763 -2.52364,-5.943045 -3.31025,-9.668182 -3.6168,-17.128443 -0.23132,-5.630137 -0.0955,-8.236124 0.61101,-11.72288 3.80859,-18.796188 18.34255,-33.953268 37.02431,-38.611668 6.60537,-1.64709 16.70198,-1.64709 23.30735,0 19.16618,4.77919 33.78367,20.44477 37.22939,39.89876 0.72133,4.072533 0.72133,12.569105 0,16.641635 -3.17667,17.935006 -15.74178,32.536672 -33.24114,38.628915 -5.24568,1.826234 -5.83649,1.914896 -13.50378,2.025888 -4.40994,0.06384 -9.3478,-0.06776 -10.97301,-0.292444 z m 10.79008,-30.127177 c 1.35718,-1.130591 1.98872,-2.583445 8.49924,-19.552648 2.99648,-7.810182 3.03506,-11.081387 0.17079,-14.485381 -2.32146,-2.758893 -9.92937,-5.839038 -17.92335,-7.256448 -1.6491,-0.29241 -2.00512,-0.18103 -2.28995,0.71637 -0.26482,0.83432 0.8594,4.924275 1.62412,5.908613 0.0811,0.104468 2.93812,0.744561 6.34878,1.422429 3.41067,0.677865 6.76987,1.605068 7.46485,2.060448 1.38854,0.909793 1.33038,1.77865 -0.45191,6.75069 -1.6216,4.523737 -5.59043,18.015971 -6.27626,21.336386 -0.58787,2.846202 -0.57417,3.386323 0.0968,3.810688 1.04839,0.663098 1.10488,0.648441 2.73693,-0.711147 z"
         style="opacity:1;fill:#000000;fill-opacity:1;stroke:#000000;stroke-width:0.191929;stroke-linecap:butt;stroke-linejoin:round;stroke-miterlimit:4;stroke-dasharray:none;stroke-dashoffset:0;stroke-opacity:1;paint-order:normal" />
    </g>
    <g
       id="g6708">
      <path
         inkscape:connector-curvature="0"
         id="path6446-0-6"
         d="m 53.226503,195.51108 -1.44103,-0.0287 v -28.68285 c 0,-27.27218 0.008,-28.6805 0.16536,-28.63511 0.81386,0.23499 4.13105,0.59755 6.6686,0.72886 2.15758,0.11165 5.09668,0.0206 7.39596,-0.22919 l 1.048,-0.11383 0.0622,4.01819 c 0.0342,2.20999 0.0622,15.04209 0.0623,28.51577 l 1.1e-4,24.49758 -6.26023,-0.021 c -3.44313,-0.0115 -6.90869,-0.0339 -7.70126,-0.0497 z"
         style="opacity:1;fill:#000000;fill-opacity:1;stroke:#000000;stroke-width:0.09500001;stroke-linecap:butt;stroke-linejoin:round;stroke-miterlimit:4;stroke-dasharray:none;stroke-dashoffset:0;stroke-opacity:1;paint-order:normal" />
      <path
         inkscape:connector-curvature="0"
         id="path6664"
         d="M 52.180104,138.60984 C 34.797323,136.49085 17.974319,121.31684 12.915147,103.19362 8.7387782,88.232833 11.83348,72.418688 21.429724,59.683525 27.855749,51.155528 36.223147,45.514664 47.603228,42.038727 c 4.146005,-1.266375 5.463921,-1.409912 12.903006,-1.40544 6.790984,0.004 9.035802,0.210714 12.44609,1.145513 17.489654,4.794118 30.996236,18.266198 35.744106,35.652789 1.61007,5.896028 1.72953,17.908138 0.23654,23.786971 -3.8921,15.32562 -13.561855,27.04211 -27.84039,33.73326 -2.418218,1.13321 -6.295486,2.50309 -8.616143,3.04416 -4.679784,1.09109 -14.055251,1.37465 -20.296333,0.61386 z m 7.027537,-29.37319 c 1.089276,0 4.869053,-7.84082 7.215087,-14.967083 2.769536,-8.412692 4.883613,-16.987785 4.492175,-18.221114 -0.649563,-2.046578 -2.75617,-1.201816 -7.114741,2.853108 -4.237866,3.942609 -10.898717,8.322522 -11.214761,7.374388 -0.299876,-0.89961 2.895166,-5.055818 6.334331,-8.239893 3.507692,-3.247495 8.385519,-6.751664 9.39837,-6.751664 0.335418,0 0.873004,-0.317076 1.194626,-0.704611 0.881314,-1.061932 -0.646634,-2.892558 -2.94367,-3.52679 -2.449002,-0.676196 -4.527854,0.321336 -9.480542,4.549272 -4.075662,3.479244 -9.268184,10.834132 -10.02412,14.198573 -0.608447,2.707984 0.354814,4.467913 2.731095,4.98983 2.329101,0.511572 4.818497,-0.485669 9.377365,-3.756528 2.203342,-1.580806 4.006075,-2.626783 4.006075,-2.324364 0,2.574925 -4.786487,19.969456 -6.197825,22.523446 -0.895136,1.61986 -0.551468,2.78083 0.682953,2.30714 0.435301,-0.16703 1.129914,-0.30371 1.543582,-0.30371 z"
         style="opacity:1;fill:#000000;fill-opacity:1;stroke:#000000;stroke-width:0.191929;stroke-linecap:butt;stroke-linejoin:round;stroke-miterlimit:4;stroke-dasharray:none;stroke-dashoffset:0;stroke-opacity:1;paint-order:normal" />
    </g>
    <g
       id="g6757">
      <g
         id="g6712">
        <path
           style="opacity:1;fill:#000000;fill-opacity:1;stroke:#000000;stroke-width:0.09500001;stroke-linecap:butt;stroke-linejoin:round;stroke-miterlimit:4;stroke-dasharray:none;stroke-dashoffset:0;stroke-opacity:1;paint-order:normal"
           d="m 159.39521,190.79655 -1.44103,-0.0287 V 162.085 c 0,-27.27218 0.008,-28.6805 0.16536,-28.63511 0.81386,0.23499 4.13105,0.59755 6.6686,0.72886 2.15758,0.11165 5.09668,0.0206 7.39596,-0.22919 l 1.048,-0.11383 0.0622,4.01819 c 0.0342,2.20999 0.0622,15.04209 0.0623,28.51577 l 1.1e-4,24.49758 -6.26023,-0.021 c -3.44313,-0.0115 -6.90869,-0.0339 -7.70126,-0.0497 z"
           id="path6446-0-9"
           inkscape:connector-curvature="0" />
        <path
           style="opacity:1;fill:#000000;fill-opacity:1;stroke:#000000;stroke-width:0.191929;stroke-linecap:butt;stroke-linejoin:round;stroke-miterlimit:4;stroke-dasharray:none;stroke-dashoffset:0;stroke-opacity:1;paint-order:normal"
           d="m 158.05961,133.84293 c -8.61886,-0.99642 -18.90017,-6.34847 -26.20542,-13.64149 -19.28439,-19.25215 -19.43248,-50.439932 -0.33097,-69.704138 6.84771,-6.906022 14.82553,-11.392588 24.53865,-13.800032 5.45391,-1.351782 17.24806,-1.19208 22.84476,0.309351 5.00036,1.341438 11.74568,4.455689 16.19467,7.47694 9.49624,6.448769 17.11291,17.614767 19.96734,29.271991 1.61872,6.610668 1.61872,16.243036 0,22.853677 -2.78376,11.368591 -9.99014,22.034471 -19.59129,28.996211 -4.0273,2.92018 -11.7874,6.44716 -16.86126,7.66345 -4.70403,1.12765 -13.61535,1.37649 -20.55648,0.57404 z m 13.0434,-28.05348 c 5.06624,-2.61985 9.89534,-13.123439 10.58013,-23.012479 0.40156,-5.798741 -0.47194,-9.776963 -2.63176,-11.986075 -3.61637,-3.698954 -6.41059,-3.984916 -9.80614,-1.003564 -1.70807,1.499684 -1.83118,1.532202 -1.83118,0.48334 0,-1.175808 -0.40095,-1.347284 -1.84994,-0.791262 -2.01724,0.774091 -6.00758,12.054125 -6.73997,19.052777 -1.17552,11.233124 2.00223,18.031773 8.42822,18.031773 1.2941,0 3.02689,-0.34853 3.85064,-0.77451 z"
           id="path6668"
           inkscape:connector-curvature="0" />
      </g>
      <path
         sodipodi:nodetypes="cssssscssssscc"
         inkscape:connector-curvature="0"
         id="path6670"
         d="m 166.07646,99.612567 c -1.68704,-3.262418 -1.88693,-12.823931 -0.41863,-20.025783 0.54619,-2.67902 3.22584,-4.520669 5.79601,-4.551896 0.073,-8.86e-4 0.50072,-7.226117 0.57347,-7.224104 0.18938,0.0053 0.60123,-0.100823 0.78781,-0.075 0.045,0.0062 -0.48843,7.360423 -0.44365,7.367866 0.6658,0.11075 1.30497,0.356949 1.87572,0.756723 4.03725,2.827787 4.19634,10.819737 0.367,18.435743 -2.04028,4.057815 -4.10998,6.43009 -5.81815,6.87337 -0.0759,0.0197 -0.30984,5.37264 -0.38431,5.38474 -0.2322,0.0376 -0.31512,-0.0122 -0.53172,-0.0498 -0.0398,-0.007 -0.0626,-5.30203 -0.10186,-5.31153 -0.65831,-0.15889 -1.2357,-0.67936 -1.70166,-1.580425 z"
         style="opacity:1;fill:#000000;fill-opacity:1;stroke:#000000;stroke-width:0.191929;stroke-linecap:butt;stroke-linejoin:round;stroke-miterlimit:4;stroke-dasharray:none;stroke-dashoffset:0;stroke-opacity:1;paint-order:normal" />
    </g>
    <g
       id="g6747">
      <path
         inkscape:connector-curvature="0"
         id="path6446-0-37"
         d="m 152.84149,24.930643 -1.44102,-0.0287 V -3.7809064 c 0,-27.2721806 0.008,-28.6805006 0.16535,-28.6351106 0.81387,0.23499 4.13106,0.59755 6.66861,0.72886 2.15758,0.11165 5.09668,0.0206 7.39596,-0.22919 l 1.048,-0.11383 0.0622,4.01819 c 0.0342,2.20999 0.0622,15.04209 0.0623,28.51577063 l 1.1e-4,24.49757937 -6.26023,-0.021 c -3.44313,-0.0115 -6.90869,-0.0339 -7.70126,-0.0497 z"
         style="opacity:1;fill:#000000;fill-opacity:1;stroke:#000000;stroke-width:0.09500001;stroke-linecap:butt;stroke-linejoin:round;stroke-miterlimit:4;stroke-dasharray:none;stroke-dashoffset:0;stroke-opacity:1;paint-order:normal" />
      <path
         inkscape:connector-curvature="0"
         id="path6660"
         d="m 152.75626,-31.850357 c -13.92019,-1.444836 -28.6583,-11.75586 -36.00462,-25.189444 -6.70145,-12.254388 -7.88305,-26.318209 -3.33202,-39.658684 5.66607,-16.608975 19.77874,-28.975255 37.19312,-32.590605 7.05161,-1.46397 16.42326,-1.09622 23.25781,0.91265 25.77477,7.57593 40.74776,33.448198 34.46745,59.557363 -4.08975,17.00231 -17.78397,31.106506 -34.82753,35.870171 -4.45707,1.245764 -14.31084,1.767337 -20.75421,1.098549 z m 17.53727,-34.453353 c 0.92094,-0.476223 1.96182,-1.402847 2.31306,-2.059146 0.83706,-1.564084 0.72022,-5.696003 -0.22504,-7.957926 -1.02622,-2.455651 -5.90705,-7.690035 -8.69304,-9.322726 -3.76607,-2.207069 -3.84219,-2.48839 -1.54036,-5.693029 2.09202,-2.912554 5.403,-6.541942 10.2471,-11.232553 2.18084,-2.11174 2.66935,-2.87091 2.20634,-3.4288 -1.10212,-1.32797 -3.20831,-0.73085 -7.23105,2.05007 -6.62096,4.577065 -12.22449,10.527253 -14.51007,15.407725 -1.12835,2.409399 -1.3823,3.759923 -1.4072,7.483536 -0.0264,3.945467 0.15874,4.895427 1.40618,7.216299 1.92154,3.574997 4.73521,6.496605 7.50838,7.796397 2.67518,1.253861 7.22903,1.134666 9.9257,-0.259847 z"
         style="opacity:1;fill:#000000;fill-opacity:1;stroke:#000000;stroke-width:0.191929;stroke-linecap:butt;stroke-linejoin:round;stroke-miterlimit:4;stroke-dasharray:none;stroke-dashoffset:0;stroke-opacity:1;paint-order:normal" />
      <path
         inkscape:connector-curvature="0"
         id="path6672"
         d="m 161.32486,-70.960482 c -2.67899,-1.069182 -4.77432,-3.125417 -5.13297,-5.037164 -0.36092,-1.923865 0.31621,-5.441606 1.6721,-8.686721 l 0.77091,-1.845058 2.67802,3.404618 c 3.74351,4.759193 6.55912,10.413339 5.8476,11.742817 -0.60669,1.133607 -3.52347,1.344295 -5.83566,0.421508 z"
         style="opacity:1;fill:#000000;fill-opacity:1;stroke:#000000;stroke-width:0.191929;stroke-linecap:butt;stroke-linejoin:round;stroke-miterlimit:4;stroke-dasharray:none;stroke-dashoffset:0;stroke-opacity:1;paint-order:normal" />
    </g>
    <g
       id="g6738">
      <path
         inkscape:connector-curvature="0"
         id="path6446-0-8"
         d="m 358.91687,22.942073 -1.44103,-0.0287 v -28.68285 c 0,-27.27218 0.008,-28.6805 0.16536,-28.63511 0.81386,0.23499 4.13105,0.59755 6.6686,0.72886 2.15758,0.11165 5.09668,0.0206 7.39596,-0.22919 l 1.048,-0.11383 0.0622,4.01819 c 0.0342,2.20999 0.0622,15.04209 0.0623,28.5157701 l 1.1e-4,24.4975799 -6.26023,-0.021 c -3.44313,-0.0115 -6.90869,-0.0339 -7.70126,-0.0497 z"
         style="opacity:1;fill:#000000;fill-opacity:1;stroke:#000000;stroke-width:0.09500001;stroke-linecap:butt;stroke-linejoin:round;stroke-miterlimit:4;stroke-dasharray:none;stroke-dashoffset:0;stroke-opacity:1;paint-order:normal" />
      <path
         sodipodi:nodetypes="cscccssccccsccscccscsssssccccssccccscc"
         inkscape:connector-curvature="0"
         id="path6666"
         d="m 357.42653,-34.042338 c -13.61272,-1.780037 -28.3459,-12.611814 -35.04848,-25.767506 -3.97338,-7.798858 -5.45611,-14.00257 -5.46205,-22.853014 -0.005,-8.035978 1.25084,-13.891842 4.44015,-20.697642 10.93411,-23.33281 36.77821,-34.38289 61.0829,-26.11707 7.13171,2.42546 12.96967,6.05448 18.55628,11.53512 7.59111,7.44712 12.3349,16.51328 14.18169,27.10357 4.37127,25.066704 -11.70981,49.779448 -36.48149,56.063302 -4.11916,1.044919 -6.31875,1.277409 -11.56605,1.222534 -3.56376,-0.03728 -7.93009,-0.257466 -9.70295,-0.489294 z m 8.07176,-35.417416 c 5.17366,-3.565339 6.08169,-6.983412 3.0121,-11.338268 l -1.69517,-2.326861 3.6819,-4.488991 c 3.86122,-4.812506 4.85262,-7.274375 4.85262,-12.050183 0,-2.123493 -0.31209,-3.022473 -1.62119,-4.669763 -1.87884,-2.36421 -2.81711,-3.06795 -5.14358,-3.85786 -1.58169,-0.53708 -2.55117,-0.44768 -7.58033,0.69884 -1.93639,0.44146 -6.50193,4.97861 -6.50193,6.46152 0,1.64788 1.03384,1.630947 5.61096,-0.0919 4.18978,-1.57702 8.98838,-1.91447 10.18652,-0.71633 0.94343,0.94343 0.36778,3.09278 -1.76743,6.534882 -0.0354,0.05712 5.12292,3.455596 5.05683,3.55599 -0.0861,0.130855 -0.33567,0.433157 -0.42341,0.56543 -0.0678,0.102156 -5.19473,-3.268277 -5.23326,-3.208401 -0.90153,1.40091 -1.80776,2.665933 -3.18884,4.468428 l -2.42366,3.1632 -2.03496,-2.293117 c -2.27251,-2.560797 -3.2804,-5.453327 -2.77708,-7.969938 0.28875,-1.443726 0.18284,-1.676003 -0.76429,-1.676003 -1.27055,0 -2.88352,2.080895 -3.79712,4.898654 -0.87101,2.686394 0.14256,4.957419 3.49081,7.821586 1.96785,1.683332 2.47723,2.410963 2.07398,2.962619 -0.294,0.402167 -1.43049,1.909048 -2.52555,3.348593 -2.90689,3.821404 -3.77985,5.882825 -3.38424,7.991581 0.53372,2.845011 2.45189,3.980232 6.72532,3.980232 3.21205,0 3.89431,-0.195024 6.171,-1.763977 z"
         style="opacity:1;fill:#000000;fill-opacity:1;stroke:#000000;stroke-width:0.191929;stroke-linecap:butt;stroke-linejoin:round;stroke-miterlimit:4;stroke-dasharray:none;stroke-dashoffset:0;stroke-opacity:1;paint-order:normal" />
      <path
         sodipodi:nodetypes="cssssssscsc"
         inkscape:connector-curvature="0"
         id="path6674"
         d="m 357.91038,-72.220786 c -0.29505,-0.768879 4.6062,-6.533263 5.18502,-7.234846 0.0747,-0.09049 3.57602,-3.786543 3.74993,-3.669987 0.0427,0.02862 0.80287,0.422064 0.52962,0.762144 -0.63093,0.785266 -2.31063,2.465666 -3.04351,3.145307 -0.21414,0.198585 -0.24349,0.40967 -0.2513,0.453084 -0.022,0.122399 0.14116,0.291507 0.21215,0.407283 1.69652,2.766767 1.43575,2.04659 1.43575,2.757148 0,0.570971 -0.70313,1.741223 -1.5625,2.600616 -1.21987,1.219861 -2.04406,1.562497 -3.75855,1.562497 -1.43579,0 -2.3001,-0.271172 -2.49661,-0.783246 z"
         style="opacity:1;fill:#000000;fill-opacity:1;stroke:#000000;stroke-width:0.191929;stroke-linecap:butt;stroke-linejoin:round;stroke-miterlimit:4;stroke-dasharray:none;stroke-dashoffset:0;stroke-opacity:1;paint-order:normal" />
    </g>
    <g
       id="g6763">
      <path
         inkscape:connector-curvature="0"
         id="path6446-0-50"
         d="m 362.08388,190.42542 -1.44103,-0.0287 v -28.68285 c 0,-27.27218 0.008,-28.6805 0.16536,-28.63511 0.81386,0.23499 4.13105,0.59755 6.6686,0.72886 2.15758,0.11165 5.09668,0.0206 7.39596,-0.22919 l 1.048,-0.11383 0.0622,4.01819 c 0.0342,2.20999 0.0622,15.04209 0.0623,28.51577 l 1.1e-4,24.49758 -6.26023,-0.021 c -3.44313,-0.0115 -6.90869,-0.0339 -7.70126,-0.0497 z"
         style="opacity:1;fill:#000000;fill-opacity:1;stroke:#000000;stroke-width:0.09500001;stroke-linecap:butt;stroke-linejoin:round;stroke-miterlimit:4;stroke-dasharray:none;stroke-dashoffset:0;stroke-opacity:1;paint-order:normal" />
      <path
         inkscape:connector-curvature="0"
         id="path6678"
         d="m 361.58953,133.61237 c -12.50958,-1.37843 -25.86614,-10.04615 -33.47995,-21.72675 -10.88818,-16.70394 -10.83564,-38.016553 0.13444,-54.543674 6.44242,-9.705914 17.22278,-17.417431 28.80193,-20.602832 6.29356,-1.731359 18.43796,-1.736735 24.85604,-0.01101 17.75518,4.774115 31.55969,18.922602 35.88155,36.775688 1.43727,5.937226 1.56324,15.676636 0.27736,21.445445 -3.44421,15.451703 -14.33692,28.927103 -28.45265,35.198863 -7.51457,3.33878 -17.71351,4.59981 -28.01872,3.46427 z m -2.4321,-30.4234 c 0.22672,-0.71431 1.53056,-1.29346 4.74377,-2.10708 11.81708,-2.992241 16.47587,-6.287857 14.07295,-9.955191 -1.28929,-1.967669 -2.7346,-2.777566 -8.97007,-5.026472 -3.2902,-1.186645 -5.54368,-2.291162 -5.54368,-2.717157 0,-0.394771 1.88659,-1.789424 4.1924,-3.099228 10.21445,-5.802233 13.52632,-8.964057 12.97922,-12.391123 -0.15838,-0.991952 -0.68334,-2.240473 -1.16663,-2.774492 -2.45687,-2.714794 -11.98994,-3.456292 -19.66574,-1.529628 -4.81094,1.207572 -6.76275,2.459445 -6.76275,4.337577 0,1.141275 1.14949,1.232625 4.59462,0.365133 1.31744,-0.331735 2.53839,-0.460084 2.71325,-0.285224 0.17487,0.174863 -0.39732,1.13257 -1.27153,2.128237 -1.40221,1.597028 -1.6302,2.338443 -1.93516,6.293091 -0.33539,4.349443 -0.4055,4.534405 -2.35707,6.21829 l -2.01139,1.735505 1.73194,1.477426 1.73193,1.477425 -0.34575,5.52904 -0.34574,5.529038 -1.78048,1.152702 c -0.97925,0.633981 -1.78345,1.444911 -1.78708,1.802061 -0.009,0.89244 1.86971,1.82297 2.89013,1.43141 0.49818,-0.19118 0.96893,0.0256 1.16498,0.53646 0.45688,1.19061 2.73902,1.09737 3.12788,-0.1278 z"
         style="opacity:1;fill:#000000;fill-opacity:1;stroke:#000000;stroke-width:0.191929;stroke-linecap:butt;stroke-linejoin:round;stroke-miterlimit:4;stroke-dasharray:none;stroke-dashoffset:0;stroke-opacity:1;paint-order:normal" />
      <path
         sodipodi:nodetypes="cccsssssssssscc"
         inkscape:connector-curvature="0"
         id="path6680"
         d="m 360.26214,96.212552 c 0.12028,-0.76612 0.36471,-2.772275 0.54317,-4.458121 0.17849,-1.685845 0.54287,-3.200138 0.80978,-3.365095 0.49237,-0.304304 2.68637,0.268117 4.95751,1.091653 0.0924,0.03351 1.60482,-3.874794 1.69737,-3.840496 0.31605,0.117115 0.53208,0.13836 0.84419,0.26251 0.0308,0.01225 -1.25808,4.066979 -1.22737,4.07928 2.32428,0.930902 4.39352,2.001915 4.39352,2.514363 0,0.35395 -2.0348,1.466286 -4.35713,2.530029 -0.0701,0.03213 1.76375,4.40734 1.69314,4.43936 -0.29455,0.133543 -0.59282,0.148997 -0.89132,0.27861 -0.0833,0.03617 -2.07089,-4.154089 -2.15414,-4.118387 -1.79982,0.771787 -3.57263,1.426349 -4.55167,1.609545 -1.90151,0.355808 -1.96752,0.317362 -1.75705,-1.023247 z"
         style="opacity:1;fill:#000000;fill-opacity:1;stroke:#000000;stroke-width:0.191929;stroke-linecap:butt;stroke-linejoin:round;stroke-miterlimit:4;stroke-dasharray:none;stroke-dashoffset:0;stroke-opacity:1;paint-order:normal" />
      <path
         sodipodi:nodetypes="ccsssscsssssccc"
         inkscape:connector-curvature="0"
         id="path6682"
         d="m 362.65869,78.649799 c 1.3e-4,-0.621919 1.59197,-8.841801 1.90976,-9.861629 0.15565,-0.499457 0.75369,-1.057498 1.329,-1.240092 0.032,-0.01015 -0.31248,-4.921419 -0.2774,-4.930049 0.14843,-0.03655 0.58344,-0.03596 0.78009,-0.04679 0.0389,-0.0021 0.19672,4.874455 0.23729,4.873255 2.05242,-0.0606 6.15715,1.076121 7.0665,2.080944 0.85119,0.940549 0.841,1.083519 -0.17484,2.455646 -0.47247,0.63818 -2.15949,1.982017 -4.07566,3.279581 -0.0433,0.0293 1.70874,3.011512 1.66525,3.040754 -0.21193,0.142506 -0.33187,0.213374 -0.5475,0.353346 -0.0643,0.04172 -2.01854,-2.798778 -2.08299,-2.757391 -0.17729,0.113831 -0.35512,0.226274 -0.53276,0.336775 -4.50299,2.801075 -5.2969,3.16315 -5.29674,2.415641 z"
         style="opacity:1;fill:#000000;fill-opacity:1;stroke:#000000;stroke-width:0.191929;stroke-linecap:butt;stroke-linejoin:round;stroke-miterlimit:4;stroke-dasharray:none;stroke-dashoffset:0;stroke-opacity:1;paint-order:normal" />
    </g>
    <g
       id="g6717">
      <path
         inkscape:connector-curvature="0"
         id="path6446-0-4"
         d="m 260.34566,192.18352 -1.44103,-0.0287 v -28.68285 c 0,-27.27218 0.008,-28.6805 0.16536,-28.63511 0.81386,0.23499 4.13105,0.59755 6.6686,0.72886 2.15758,0.11165 5.09668,0.0206 7.39596,-0.22919 l 1.048,-0.11383 0.0622,4.01819 c 0.0342,2.20999 0.0622,15.04209 0.0623,28.51577 l 1.1e-4,24.49758 -6.26023,-0.021 c -3.44313,-0.0115 -6.90869,-0.0339 -7.70126,-0.0497 z"
         style="opacity:1;fill:#000000;fill-opacity:1;stroke:#000000;stroke-width:0.09500001;stroke-linecap:butt;stroke-linejoin:round;stroke-miterlimit:4;stroke-dasharray:none;stroke-dashoffset:0;stroke-opacity:1;paint-order:normal" />
      <path
         inkscape:connector-curvature="0"
         id="path6684"
         d="m 259.8513,135.37047 c -12.50956,-1.37842 -25.86615,-10.04615 -33.47993,-21.72674 -10.88818,-16.703941 -10.83566,-38.016554 0.13441,-54.543675 6.44242,-9.705914 17.22281,-17.41743 28.80193,-20.602833 6.29359,-1.731358 18.43799,-1.736735 24.85607,-0.011 17.75518,4.774114 31.55966,18.922601 35.88155,36.775687 1.43727,5.937226 1.56324,15.676636 0.27736,21.445445 -3.44421,15.451686 -14.33692,28.927076 -28.45265,35.198836 -7.51457,3.3388 -17.71351,4.59981 -28.01874,3.46428 z m -2.49386,-32.90076 c 0.43437,-0.43435 1.3144,-2.41882 1.95564,-4.409937 0.64125,-1.991122 1.63028,-4.702657 2.19787,-6.02564 1.01563,-2.367335 1.1059,-2.428232 5.69973,-3.845515 2.56725,-0.792048 5.4179,-1.561473 6.33474,-1.709832 l 1.66698,-0.269746 -0.25194,7.456125 c -0.24188,7.159845 -0.20984,7.456135 0.80664,7.456135 1.56535,0 2.27377,-1.170273 2.80953,-4.64113 0.26397,-1.710332 0.73093,-4.753329 1.03767,-6.762218 0.30675,-2.008891 0.4115,-3.889102 0.2328,-4.178244 -0.1787,-0.289142 0.11359,-0.846344 0.6495,-1.238226 0.83079,-0.607473 0.87733,-0.897739 0.31581,-1.968955 -0.36224,-0.691047 -0.76036,-4.022685 -0.88474,-7.403645 -0.12436,-3.38096 -0.39233,-6.578394 -0.59547,-7.105412 -0.20312,-0.527015 -1.32181,-1.444119 -2.48592,-2.038006 -1.61928,-0.826095 -2.0256,-1.291709 -1.72935,-1.98175 0.87535,-2.039041 0.89348,-3.828307 0.0421,-4.155019 -0.97546,-0.374317 -3.77666,1.220655 -5.65467,3.219701 -0.70771,0.753337 -1.57618,1.369705 -1.92993,1.369705 -0.98856,0 -1.83308,1.289566 -1.35313,2.066148 0.26048,0.421499 -0.15398,1.778563 -1.05571,3.456577 -0.81651,1.519447 -1.89738,4.205885 -2.40192,5.969865 -1.62086,5.66692 -3.17137,8.634846 -4.71318,9.021815 -0.85547,0.214715 -1.48312,0.808326 -1.63197,1.543474 -0.13304,0.657013 -0.37862,1.843333 -0.54579,2.636266 -0.2101,0.996849 -0.0426,1.587928 0.54298,1.91562 0.76298,0.426985 0.73859,0.803751 -0.2463,3.803899 -1.98678,6.051995 -2.10021,8.607675 -0.38208,8.607675 0.42923,0 1.13577,-0.35538 1.57014,-0.78973 z"
         style="opacity:1;fill:#000000;fill-opacity:1;stroke:#000000;stroke-width:0.191929;stroke-linecap:butt;stroke-linejoin:round;stroke-miterlimit:4;stroke-dasharray:none;stroke-dashoffset:0;stroke-opacity:1;paint-order:normal" />
      <path
         inkscape:connector-curvature="0"
         id="path6686"
         d="m 266.10745,80.904909 c 3.80846,-8.277764 4.52578,-9.711039 5.00978,-10.010171 0.28794,-0.177954 1.21531,0.41702 2.06084,1.322162 1.62356,1.738014 2.19334,4.722077 1.64034,8.590796 -0.0432,0.302521 -0.0806,0.556229 -0.12667,0.770635 -0.0127,0.05905 5.91233,-0.03522 5.89799,0.01807 -0.0279,0.103768 0.14927,0.522718 0.1117,0.606849 -0.0374,0.08366 -6.2556,0.333573 -6.2556,0.333573 -0.52375,0.115826 -1.15153,0.288281 -3.10193,0.517391 -1.76398,0.207209 -3.97812,0.491498 -4.92027,0.631751 l -1.71305,0.255006 -6.66042,0.816164 0.9202,-0.630289 6.01415,-0.781286 z"
         style="opacity:1;fill:#000000;fill-opacity:1;stroke:#000000;stroke-width:0.191929;stroke-linecap:butt;stroke-linejoin:round;stroke-miterlimit:4;stroke-dasharray:none;stroke-dashoffset:0;stroke-opacity:1;paint-order:normal"
         sodipodi:nodetypes="ccccssssccccccc" />
    </g>
    <g
       id="g6733">
      <path
         inkscape:connector-curvature="0"
         id="path6446-0-5"
         d="m 351.00712,-137.21328 -1.44103,-0.0287 v -28.68285 c 0,-27.27218 0.008,-28.6805 0.16536,-28.63511 0.81386,0.23499 4.13105,0.59755 6.6686,0.72886 2.15758,0.11165 5.09668,0.0206 7.39596,-0.22919 l 1.048,-0.11383 0.0622,4.01819 c 0.0342,2.20999 0.0622,15.04209 0.0623,28.51577 l 1.1e-4,24.49758 -6.26023,-0.021 c -3.44313,-0.0115 -6.90869,-0.0339 -7.70126,-0.0497 z"
         style="opacity:1;fill:#000000;fill-opacity:1;stroke:#000000;stroke-width:0.09500001;stroke-linecap:butt;stroke-linejoin:round;stroke-miterlimit:4;stroke-dasharray:none;stroke-dashoffset:0;stroke-opacity:1;paint-order:normal" />
      <path
         inkscape:connector-curvature="0"
         id="path6688"
         d="m 349.52375,-194.18275 c -14.57899,-1.95011 -29.20066,-13.273 -36.07038,-27.93257 -3.18556,-6.79782 -4.44461,-12.66096 -4.44461,-20.69762 0,-10.55411 2.78196,-19.57749 8.74154,-28.35337 9.94696,-14.64753 28.7631,-23.13802 46.35545,-20.91719 11.14021,1.40632 21.01932,6.17465 28.9868,13.99098 18.32631,17.97864 19.94096,46.13749 3.8096,66.4371 -6.12153,7.70329 -16.25607,14.23265 -25.86844,16.66616 -5.27801,1.33621 -14.8631,1.6956 -21.50996,0.80651 z m 10.60579,-34.96549 c 0.53234,-0.40362 1.06027,-1.41827 1.17317,-2.25479 0.82182,-6.09036 1.30624,-8.7836 1.70939,-9.50398 0.25625,-0.4579 1.77988,-1.61773 3.38585,-2.57739 1.97397,-1.1796 2.91991,-2.08942 2.91991,-2.80849 0,-1.12224 -1.12498,-1.26496 -4.07882,-0.51745 l -1.40612,0.35583 0.47487,-2.58916 c 0.2612,-1.42404 0.93951,-4.51351 1.50736,-6.86548 0.96885,-4.01274 0.97681,-4.32997 0.12943,-5.14687 -0.49667,-0.4788 -1.54694,-1.02019 -2.33394,-1.20308 -2.36257,-0.54905 -3.36481,1.34449 -4.11835,7.78084 -0.35533,3.03496 -0.7879,6.32988 -0.96125,7.32204 l -0.31523,1.80393 -3.66196,-0.26201 c -4.54015,-0.32485 -5.48508,-0.99878 -5.01801,-3.57883 0.54102,-2.98837 2.85853,-10.45389 5.19641,-16.73949 2.82401,-7.59251 2.27685,-8.85189 -2.60334,-5.99191 -2.66411,1.56127 -3.92356,3.63988 -4.13694,6.82773 -0.0824,1.23125 -0.56177,3.42539 -1.06519,4.87585 -0.99369,2.86299 -1.88944,8.76772 -1.91098,12.59715 -0.037,6.58189 2.04838,8.40155 8.9625,7.82047 l 3.90385,-0.32809 -0.3718,5.87552 c -0.3507,5.54224 -0.3144,5.87455 0.63974,5.85851 0.55634,-0.009 1.44708,-0.34724 1.97945,-0.75085 z"
         style="opacity:1;fill:#000000;fill-opacity:1;stroke:#000000;stroke-width:0.191929;stroke-linecap:butt;stroke-linejoin:round;stroke-miterlimit:4;stroke-dasharray:none;stroke-dashoffset:0;stroke-opacity:1;paint-order:normal" />
    </g>
    <text
       xml:space="preserve"
       style="font-style:normal;font-variant:normal;font-weight:normal;font-stretch:normal;font-size:58.03543091px;line-height:1.25;font-family:Mistral;-inkscape-font-specification:Mistral;letter-spacing:0px;word-spacing:0px;fill:#000000;fill-opacity:1;stroke:none;stroke-width:3.62721443"
       x="195.61519"
       y="-109.00611"
       id="text6236-7-64"
       transform="matrix(0,1.0383391,-0.96307652,0,0,0)"><tspan
         sodipodi:role="line"
         id="tspan6234-8-99"
         x="195.61519"
         y="-109.00611"
         style="font-style:normal;font-variant:normal;font-weight:normal;font-stretch:normal;font-family:Mistral;-inkscape-font-specification:Mistral;stroke-width:3.62721443">C</tspan></text>
    <g
       id="g7651">
      <path
         inkscape:connector-curvature="0"
         id="path6446-0-1"
         d="m 87.013154,237.86319 0.0287,-1.44103 H 115.7247 c 27.27218,0 28.6805,0.008 28.63511,0.16536 -0.23499,0.81386 -0.59755,4.13105 -0.72886,6.6686 -0.11165,2.15758 -0.0206,5.09668 0.22919,7.39596 l 0.11383,1.048 -4.01819,0.0622 c -2.20999,0.0342 -15.04209,0.0622 -28.51577,0.0623 l -24.497576,1.1e-4 0.021,-6.26023 c 0.0115,-3.44313 0.0339,-6.90869 0.0497,-7.70126 z"
         style="opacity:1;fill:#000000;fill-opacity:1;stroke:#000000;stroke-width:0.09500001;stroke-linecap:butt;stroke-linejoin:round;stroke-miterlimit:4;stroke-dasharray:none;stroke-dashoffset:0;stroke-opacity:1;paint-order:normal" />
      <path
         inkscape:connector-curvature="0"
         id="path6690"
         d="m 143.75103,238.22812 c 1.59091,-15.57451 12.37649,-30.46597 27.26861,-37.64933 22.42667,-10.8177 49.4265,-3.35571 63.05855,17.4276 5.96751,9.09804 8.4043,18.00045 8.01536,29.28281 -0.28561,8.28577 -1.66751,13.57371 -5.47632,20.95577 -5.90883,11.45215 -16.24221,20.20186 -28.59103,24.20924 -5.90539,1.91641 -8.40676,2.28238 -15.52903,2.27203 -7.08559,-0.0103 -10.33767,-0.52178 -16.06397,-2.5265 -18.1466,-6.35299 -31.53788,-23.1679 -32.89855,-41.3094 -0.41508,-5.53397 -0.39566,-6.67075 0.21638,-12.66222 z m 32.10692,10.12651 c 0.7425,1.56355 2.13825,4.16793 3.10165,5.78749 l 1.75163,2.94468 1.33786,-0.55898 c 1.79517,-0.75007 1.78509,-0.72353 0.76224,-2.00716 -3.67459,-4.61139 -5.34823,-9.31907 -4.47111,-12.57646 0.57552,-2.13725 2.56958,-4.46884 4.89653,-5.72535 2.93852,-1.5867 5.99184,-1.86243 10.56482,-0.95403 4.13861,0.82208 6.93009,2.0053 9.74484,4.13046 2.41117,1.82044 3.74991,3.74682 4.45108,6.40488 0.46466,1.76135 0.45146,2.19469 -0.11808,3.87892 -0.94081,2.78217 -1.83396,2.95172 -4.72858,0.89762 -1.48363,-1.05283 -7.30851,-2.52118 -10.00141,-2.52118 -2.78225,0 -3.05819,0.32813 -2.29656,2.7311 0.48218,1.52128 0.67353,1.68014 3.46052,2.87269 4.00706,1.71463 10.34785,2.89356 13.65681,2.53921 3.25017,-0.34806 4.16885,-1.13541 4.94821,-4.2409 1.17999,-4.70165 -0.85222,-9.47658 -6.4234,-15.0926 -2.85977,-2.88282 -3.98872,-3.72714 -6.9492,-5.19719 -1.94408,-0.96536 -3.86876,-1.75519 -4.27707,-1.75519 -0.4083,0 -1.0946,-0.18849 -1.52513,-0.41891 -0.43051,-0.2304 -2.54273,-0.47631 -4.69385,-0.54647 -3.34742,-0.1092 -4.2945,0.003 -6.57158,0.77731 -1.46328,0.49769 -3.13706,1.24423 -3.71952,1.65897 -2.81688,2.0058 -4.69915,6.92221 -4.41269,11.52588 0.12293,1.97551 0.48712,3.28719 1.51199,5.44521 z"
         style="opacity:1;fill:#000000;fill-opacity:1;stroke:#000000;stroke-width:0.13571428;stroke-linecap:butt;stroke-linejoin:round;stroke-miterlimit:4;stroke-dasharray:none;stroke-dashoffset:0;stroke-opacity:1;paint-order:normal" />
    </g>
    <g
       id="g7655">
      <path
         inkscape:connector-curvature="0"
         id="path7630"
         d="m 367.56708,284.44266 c -8.11043,-1.27929 -15.48048,-4.87305 -21.40262,-10.43625 -20.4534,-19.21381 -15.26723,-52.71905 10.03131,-64.80726 23.18583,-11.07871 50.66426,2.55 55.96702,27.75842 3.71935,17.68118 -5.17914,35.72298 -21.58008,43.75388 -5.22497,2.55847 -10.08507,3.75007 -16.0551,3.93639 -2.59858,0.0811 -5.73082,-0.0111 -6.96053,-0.20518 z m 8.19155,-38.58903 c 1.45066,-1.95202 -0.475,-5.62047 -2.95034,-5.62047 -1.15411,0 -1.31585,0.13923 -1.71688,1.47767 -0.54348,1.81396 -0.22897,3.20702 1.00195,4.43794 1.18227,1.18226 2.65544,1.06363 3.66527,-0.29514 z"
         style="opacity:1;fill:#000000;fill-opacity:1;stroke:#000000;stroke-width:0.13571428;stroke-linecap:butt;stroke-linejoin:round;stroke-miterlimit:4;stroke-dasharray:none;stroke-dashoffset:0;stroke-opacity:1;paint-order:normal" />
      <path
         inkscape:connector-curvature="0"
         id="path6446-0-1-3"
         d="m 277.52239,237.44512 0.0287,-1.44103 h 28.68284 c 27.27218,0 28.6805,0.008 28.63511,0.16536 -0.23499,0.81386 -0.59755,4.13105 -0.72886,6.6686 -0.11165,2.15758 -0.0206,5.09668 0.22919,7.39596 l 0.11383,1.048 -4.01819,0.0622 c -2.20999,0.0342 -15.04209,0.0622 -28.51577,0.0623 l -24.49757,1.1e-4 0.021,-6.26023 c 0.0115,-3.44313 0.0339,-6.90869 0.0497,-7.70126 z"
         style="opacity:1;fill:#000000;fill-opacity:1;stroke:#000000;stroke-width:0.09500001;stroke-linecap:butt;stroke-linejoin:round;stroke-miterlimit:4;stroke-dasharray:none;stroke-dashoffset:0;stroke-opacity:1;paint-order:normal" />
    </g>
  </g>
</svg>
