<?xml version="1.0" encoding="UTF-8" standalone="no"?>
<!-- Created with Inkscape (http://www.inkscape.org/) -->

<svg
   xmlns:dc="http://purl.org/dc/elements/1.1/"
   xmlns:cc="http://creativecommons.org/ns#"
   xmlns:rdf="http://www.w3.org/1999/02/22-rdf-syntax-ns#"
   xmlns:svg="http://www.w3.org/2000/svg"
   xmlns="http://www.w3.org/2000/svg"
   xmlns:sodipodi="http://sodipodi.sourceforge.net/DTD/sodipodi-0.dtd"
   xmlns:inkscape="http://www.inkscape.org/namespaces/inkscape"
   width="210mm"
   height="297mm"
   viewBox="0 0 210 297"
   version="1.1"
   id="svg6771"
   inkscape:version="0.92.3 (2405546, 2018-03-11)"
   sodipodi:docname="point.svg">
  <defs
     id="defs6765" />
  <sodipodi:namedview
     id="base"
     pagecolor="#ffffff"
     bordercolor="#666666"
     borderopacity="1.0"
     inkscape:pageopacity="0.0"
     inkscape:pageshadow="2"
     inkscape:zoom="0.35"
     inkscape:cx="-77.142857"
     inkscape:cy="560"
     inkscape:document-units="mm"
     inkscape:current-layer="layer1"
     showgrid="false"
     inkscape:window-width="1920"
     inkscape:window-height="1001"
     inkscape:window-x="-9"
     inkscape:window-y="-9"
     inkscape:window-maximized="1" />
  <metadata
     id="metadata6768">
    <rdf:RDF>
      <cc:Work
         rdf:about="">
        <dc:format>image/svg+xml</dc:format>
        <dc:type
           rdf:resource="http://purl.org/dc/dcmitype/StillImage" />
        <dc:title></dc:title>
      </cc:Work>
    </rdf:RDF>
  </metadata>
  <g
     inkscape:label="Layer 1"
     inkscape:groupmode="layer"
     id="layer1">
    <g
       transform="rotate(-90,156.65594,307.16592)"
       id="g7655">
      <path
         inkscape:connector-curvature="0"
         id="path7630"
         d="m 367.56708,284.44266 c -8.11043,-1.27929 -15.48048,-4.87305 -21.40262,-10.43625 -20.4534,-19.21381 -15.26723,-52.71905 10.03131,-64.80726 23.18583,-11.07871 50.66426,2.55 55.96702,27.75842 3.71935,17.68118 -5.17914,35.72298 -21.58008,43.75388 -5.22497,2.55847 -10.08507,3.75007 -16.0551,3.93639 -2.59858,0.0811 -5.73082,-0.0111 -6.96053,-0.20518 z m 8.19155,-38.58903 c 1.45066,-1.95202 -0.475,-5.62047 -2.95034,-5.62047 -1.15411,0 -1.31585,0.13923 -1.71688,1.47767 -0.54348,1.81396 -0.22897,3.20702 1.00195,4.43794 1.18227,1.18226 2.65544,1.06363 3.66527,-0.29514 z"
         style="opacity:1;fill:#000000;fill-opacity:1;stroke:#000000;stroke-width:0.13571428;stroke-linecap:butt;stroke-linejoin:round;stroke-miterlimit:4;stroke-dasharray:none;stroke-dashoffset:0;stroke-opacity:1;paint-order:normal" />
      <path
         inkscape:connector-curvature="0"
         id="path6446-0-1-3"
         d="m 277.52239,237.44512 0.0287,-1.44103 h 28.68284 c 27.27218,0 28.6805,0.008 28.63511,0.16536 -0.23499,0.81386 -0.59755,4.13105 -0.72886,6.6686 -0.11165,2.15758 -0.0206,5.09668 0.22919,7.39596 l 0.11383,1.048 -4.01819,0.0622 c -2.20999,0.0342 -15.04209,0.0622 -28.51577,0.0623 l -24.49757,1.1e-4 0.021,-6.26023 c 0.0115,-3.44313 0.0339,-6.90869 0.0497,-7.70126 z"
         style="opacity:1;fill:#000000;fill-opacity:1;stroke:#000000;stroke-width:0.09500001;stroke-linecap:butt;stroke-linejoin:round;stroke-miterlimit:4;stroke-dasharray:none;stroke-dashoffset:0;stroke-opacity:1;paint-order:normal" />
    </g>
  </g>
</svg>
